<svg width="254" height="517" viewBox="0 0 254 517" fill="none" xmlns="http://www.w3.org/2000/svg">
<path d="M120.149 3.74338C121.209 3.01425 123.331 1.95368 124.789 1.35711C126.247 0.760543 128.169 0.429116 129.097 0.627972C130.025 0.826828 132.213 1.62225 134.069 2.48396C135.991 3.34567 139.305 5.86452 142.089 8.51593C144.674 11.1011 148.718 16.1388 151.17 19.7844C153.557 23.4301 157.468 30.3238 159.854 35.0301C162.174 39.8026 165.157 46.63 166.416 50.2757C167.675 53.9214 169.531 60.3511 172.448 72.1499L172.846 191.795L172.848 192.459C173.177 309.851 173.178 310.072 173.509 146.721L175.762 141.286C176.955 138.236 180.071 130.879 182.59 124.847C185.109 118.815 187.561 112.717 188.025 111.258C188.489 109.8 189.616 107.149 190.61 105.293C192.002 102.707 192.798 101.912 194.19 101.846C195.25 101.713 196.642 101.978 197.371 102.31C198.1 102.707 199.426 104.563 200.288 106.486C201.15 108.342 202.409 111.855 203.006 114.241C203.668 116.627 204.729 119.743 205.392 121.201C206.055 122.659 208.706 128.824 211.291 134.988C213.81 141.087 215.865 146.456 215.865 146.92C215.799 147.318 215.799 150.3 215.931 159.315H220.571V163.624C220.571 166.673 220.306 168.065 219.643 168.396C218.848 168.86 218.649 183.576 218.318 372.423L229.785 384.023C236.082 390.386 242.048 396.683 243.108 397.943C244.169 399.202 246.025 402.516 247.284 405.234C248.61 407.952 250.4 412.857 251.328 416.171C252.256 419.485 252.985 423.197 252.918 424.457C252.918 425.716 253.117 428.832 253.382 431.417C253.78 434.93 253.714 436.587 252.985 438.31C252.454 439.57 251.328 441.094 250.4 441.757C249.206 442.553 246.423 443.083 240.788 443.613C236.413 443.945 229.719 444.475 225.874 444.674C222.029 444.873 218.119 445.204 217.058 445.403C215.865 445.602 215.401 445.999 215.6 446.662C215.799 447.193 215.666 448.054 215.268 448.518C214.937 448.916 214.672 451.236 214.672 453.622C214.672 456.009 214.606 458.66 214.606 459.588C214.539 460.516 214.539 462.571 214.606 464.228V464.229C214.606 465.886 214.606 468.736 214.539 470.525C214.539 472.381 214.473 474.568 214.539 475.496C214.539 476.424 215.732 478.678 217.124 480.468C218.516 482.324 220.306 485.704 221.102 488.091C221.963 490.477 222.825 494.255 223.09 496.575C223.488 499.956 223.355 500.884 222.56 501.348C222.029 501.679 219.378 502.011 216.727 502.011C214.142 502.011 211.954 502.209 211.954 502.541C211.954 502.806 212.816 505.259 213.943 507.976C215.003 510.694 215.865 513.611 215.931 515.931H194.388C177.751 515.931 172.779 515.732 172.514 515.135C172.315 514.671 173.045 511.755 174.171 508.639L174.265 508.363C175.286 505.365 176.16 502.798 176.16 502.541C176.16 502.209 173.442 502.011 164.229 502.011V499.558C164.229 498.166 164.693 495.316 165.223 493.261C165.753 491.14 167.013 488.024 167.941 486.301C168.869 484.511 170.526 481.661 171.586 479.805C173.376 476.756 173.509 476.093 173.243 471.519C173.045 468.802 172.912 466.018 172.846 465.421V460.251V455.478C172.846 455.014 172.978 453.556 173.177 452.297C173.442 450.772 173.31 449.645 172.713 449.115C172.249 448.651 171.122 448.319 168.736 448.651L168.869 473.508H162.24C155.678 473.508 155.612 473.508 156.009 475.032C156.208 475.828 156.672 478.546 157.136 480.998C157.932 485.506 157.932 485.572 156.274 486.765C155.346 487.428 152.828 488.29 150.64 488.621C148.453 488.952 143.68 489.151 140.034 489.019L139.786 489.01C136.222 488.88 132.657 488.751 131.815 488.621C130.291 488.422 130.158 488.687 129.429 493.062C129.031 495.647 128.435 498.1 128.236 498.564C127.971 498.961 127.374 499.359 126.91 499.359C126.512 499.426 125.651 498.895 124.988 498.232C124.391 497.569 123.662 495.581 123.397 493.725C123.132 491.935 122.933 489.88 122.999 489.284C123.065 488.621 122.933 488.091 122.601 488.091C122.336 488.091 121.209 488.488 120.149 489.085C118.691 489.814 116.371 490.079 111.532 490.013C107.886 489.947 102.981 489.483 100.595 489.019C98.2084 488.488 95.8221 487.627 95.2918 487.096C94.4301 486.235 94.4301 485.439 95.093 481.926C95.4907 479.672 96.021 477.021 96.6176 474.171L83.6919 473.839V461.245C83.6919 450.374 83.5593 448.651 82.6976 448.85C82.1673 448.982 81.4382 449.446 81.1731 449.844C80.9079 450.308 80.8416 451.7 81.0405 452.959C81.2393 454.219 81.3719 455.611 81.3719 455.942C81.3056 456.274 81.1731 458.262 80.9742 460.251C80.7753 462.239 80.9079 464.228 81.2393 464.559C81.5708 464.891 81.6371 465.819 81.3056 466.548C81.0405 467.277 80.7753 469.928 80.7091 472.514C80.6428 476.756 80.8416 477.352 82.6313 479.474C83.7582 480.733 85.4153 483.318 86.3433 485.108C87.205 486.964 88.4644 490.676 88.9947 493.394C89.5913 496.111 89.989 499.094 89.8564 500.022C89.6576 501.613 89.3924 501.679 84.2222 502.011C81.2393 502.21 78.6542 502.541 78.4554 502.872C78.2565 503.137 79.1845 505.855 80.5102 508.971C82.565 513.611 82.8965 514.804 82.1673 515.467C81.5708 516.063 75.7377 516.328 60.492 516.461C41.1367 516.593 39.5458 516.527 39.1481 515.467C38.883 514.737 39.4133 512.285 40.4075 509.633C41.3355 507.048 42.2635 504.463 42.5287 503.867C42.8601 502.806 42.3298 502.673 30.6636 502.342L30.7962 498.564C30.9287 496.443 31.5916 492.863 32.387 490.61C33.1162 488.29 35.0384 484.644 39.2807 478.479L39.4795 470.194C39.6121 465.62 39.6784 461.311 39.6784 460.582C39.6784 459.853 39.5458 456.738 39.347 453.622C39.0818 450.507 38.883 447.391 38.883 446.662C38.8167 445.403 37.8887 445.27 4.81229 442.95L2.9563 441.028C1.96202 439.901 1.1666 438.443 1.1666 437.714C1.1666 436.985 1.10031 435.725 0.967742 434.93C0.835171 434.068 1.03403 432.345 1.29917 431.085C1.56431 429.826 1.89574 426.71 2.09459 424.125C2.29345 421.54 3.22145 416.966 4.14944 413.851C5.07744 410.736 6.86714 405.963 8.19285 403.245C10.3803 398.871 12.1037 396.749 36.2979 372.423V270.211C36.2979 179.731 36.1653 167.932 35.3036 167.932C34.5081 167.932 34.3093 167.004 34.3093 163.292C34.3093 160.044 34.5744 158.652 35.1047 158.586C35.5687 158.52 36.563 158.453 37.2921 158.387C38.4853 158.321 38.6178 157.724 38.9493 152.024C39.2144 147.119 39.7447 144.732 41.1367 141.418C42.131 139.032 43.2578 136.513 43.5892 135.784C43.9207 135.055 44.7824 133.132 45.4452 131.475C46.1744 129.818 47.9641 125.576 49.4886 122.063C50.9469 118.483 52.2063 115.368 52.2063 115.103C52.2063 114.771 52.8692 112.915 53.7309 110.927C54.5263 108.938 55.852 106.154 56.7137 104.829C57.9069 102.774 58.5697 102.31 60.1606 102.31C61.2874 102.31 62.6794 102.84 63.276 103.503C63.8726 104.099 65.0657 106.154 65.8611 107.944C66.7228 109.8 67.8497 112.915 68.38 114.904C68.9103 116.893 71.0977 122.726 73.2851 127.83C75.4062 132.934 78.0576 139.164 81.0405 146.39L81.3719 110.595C81.7033 79.375 81.9022 74.1385 82.9628 69.4985C83.6256 66.5819 85.0176 61.2128 86.0119 57.5671C87.0725 53.9214 88.3982 49.7454 88.9947 48.2872C89.6576 46.8289 91.1159 43.5146 92.309 40.9958C93.5021 38.4769 96.2198 33.373 98.2747 29.7273C100.396 26.0816 104.108 20.4473 106.56 17.133C109.013 13.8188 112.592 9.77535 114.581 8.11822C116.569 6.46109 119.088 4.47252 120.149 3.74338Z" fill="#464646"/>
<path fill-rule="evenodd" clip-rule="evenodd" d="M127.639 3.54471C128.435 3.54471 129.694 4.20756 130.423 5.06927C131.152 5.8647 132.809 8.5824 134.002 11.1675C135.262 13.7527 137.052 18.6578 137.98 22.1046C138.908 25.5515 140.101 31.1857 140.631 34.5663C141.228 37.8805 141.692 41.0622 141.692 41.4599C141.692 42.1228 138.576 42.3217 128.236 42.3217C120.878 42.3217 111.731 42.5868 107.886 42.8519C104.041 43.1834 99.4015 43.6474 97.6118 43.9788C95.7558 44.3765 94.2312 44.5754 94.0987 44.4428C94.0324 44.3765 94.8941 42.1891 96.1535 39.6702C97.3467 37.1514 99.9981 32.18 102.053 28.7332C104.174 25.2863 107.753 20.0498 110.073 17.1332C112.393 14.2167 115.641 10.7698 117.232 9.44411C118.823 8.1184 121.475 6.19612 123.132 5.26813C124.789 4.34013 126.777 3.54471 127.573 3.54471L127.639 3.54471ZM133.804 5.53327C134.135 5.53327 135.858 6.66012 137.582 8.05211C139.372 9.44411 142.023 12.0955 143.481 13.8852C145.006 15.6749 147.591 19.1881 149.314 21.7732C151.038 24.3583 154.485 30.5229 157.07 35.5605C159.589 40.532 161.577 44.7742 161.445 44.9068C161.378 45.1056 160.119 44.9731 158.661 44.6416C157.202 44.3102 154.485 43.9125 152.695 43.6474C150.839 43.4485 148.055 43.1171 143.415 42.5868L142.487 36.82C142.023 33.6383 141.029 28.6669 140.366 25.7503C139.703 22.8338 138.51 18.5252 137.714 16.1389C136.985 13.7527 135.593 10.5047 134.732 8.84754C133.804 7.1904 133.141 5.79841 133.141 5.66584C133.141 5.59956 133.406 5.53327 133.804 5.53327ZM131.616 44.5091C139.04 44.5754 141.824 44.8405 142.023 45.4371C142.222 45.9011 142.553 48.0885 142.752 50.2759C142.951 52.4633 143.282 68.4381 143.481 85.7386C143.68 103.039 143.68 118.086 143.084 121.201L125.717 121.334C116.105 121.4 104.572 121.732 99.9981 122.196C95.4244 122.593 90.5193 123.19 89.061 123.521C87.6027 123.853 85.8793 124.25 85.2164 124.449C84.1559 124.847 84.0896 123.521 84.0896 103.172C84.0896 91.174 84.421 78.9112 84.7524 75.7958C85.1501 72.6804 86.0781 67.7752 86.8073 64.8587C87.6027 61.9421 88.8621 57.3022 89.7901 54.5845C90.6518 51.8668 91.845 49.1491 92.5078 48.5525C93.1707 47.9559 94.7615 47.1605 96.021 46.7628C97.2804 46.3651 99.6666 45.8348 101.324 45.5696C102.981 45.3045 108.217 44.9068 112.924 44.7079C117.63 44.5091 126.115 44.3765 131.616 44.4428V44.5091ZM143.68 45.3708H146.994C148.85 45.3708 152.695 45.7022 155.479 46.1662C158.992 46.6965 161.113 47.4256 162.041 48.3536C162.837 49.0828 164.03 51.6016 164.825 53.9879C165.621 56.3742 166.814 60.6827 167.543 63.5993C168.272 66.5158 169.266 71.4209 169.73 74.5364C170.327 78.5135 170.526 86.6003 170.194 124.582L167.079 123.853C165.355 123.389 159.721 122.66 145.205 121.268L144.873 88.1249C144.674 69.8964 144.343 52.7948 144.144 50.1433L143.68 45.3708ZM195.25 104.365C195.714 104.365 196.51 105.094 197.04 105.889C197.504 106.685 198.564 109.336 199.36 111.656C200.089 114.042 200.686 116.031 200.553 116.097C200.487 116.097 197.968 116.296 194.919 116.429C191.604 116.561 189.483 116.429 189.483 115.965C189.483 115.633 190.08 113.711 190.875 111.656C191.604 109.668 192.731 107.215 193.328 106.221C193.858 105.226 194.72 104.365 195.25 104.365ZM60.5583 105.094C60.8897 105.094 61.6851 105.757 62.2817 106.552C62.8783 107.414 63.8725 109.668 64.5354 111.656C65.1982 113.711 65.7948 115.7 65.9274 116.164C66.1262 116.76 64.7342 116.959 60.5583 116.959C57.244 116.959 54.924 116.694 54.924 116.296C54.924 115.965 55.5869 113.976 56.316 111.855C57.1114 109.734 58.2383 107.414 58.8349 106.552C59.4314 105.757 60.1606 105.094 60.5583 105.094ZM195.78 117.754C197.636 117.688 199.625 118.02 200.42 118.55C201.15 119.08 202.276 120.605 202.873 122.063C203.47 123.455 205.79 128.824 207.911 133.862C210.032 138.966 212.087 143.937 212.352 144.799C212.683 145.859 212.683 146.323 212.286 146.058C211.954 145.793 209.568 145.395 207.049 145.13C204.464 144.865 199.095 144.666 195.118 144.666C191.074 144.666 185.506 144.865 182.656 145.064C179.408 145.329 177.552 145.263 177.552 144.799C177.552 144.467 178.878 140.954 180.535 137.043C182.192 133.133 184.512 127.697 185.639 124.913C186.766 122.196 188.025 119.61 188.356 119.213C188.688 118.749 189.748 118.285 190.676 118.152C191.671 117.953 193.924 117.821 195.78 117.754ZM60.4257 118.351C63.0108 118.351 65.4634 118.55 65.8611 118.815C66.1925 119.08 66.8554 120.074 67.3194 120.936C67.7171 121.864 68.7114 123.985 69.3742 125.576C70.1034 127.233 72.2245 132.271 74.0805 136.712C75.9365 141.153 77.461 144.998 77.461 145.13C77.461 145.329 75.6051 145.263 73.2851 144.998C71.0314 144.733 64.9994 144.467 59.8954 144.467C54.7914 144.467 48.892 144.733 46.7709 144.998C44.7161 145.263 42.9926 145.329 42.9926 145.13C42.9926 144.998 44.4509 141.352 46.1743 137.043C47.9641 132.735 50.1515 127.498 51.0132 125.377C51.8749 123.256 53.2669 120.804 54.1286 119.942C55.4543 118.484 56.1834 118.351 60.4257 118.351ZM127.175 122.461C132.478 122.394 138.245 122.593 143.415 123.256V142.346C143.415 152.819 143.282 161.436 143.084 161.436C142.885 161.436 142.222 160.575 141.625 159.58C141.029 158.586 139.372 156.465 137.98 154.808C136.588 153.217 134.268 151.03 132.809 149.969C130.953 148.643 129.362 148.113 127.507 148.113C125.717 148.113 124.126 148.643 122.535 149.837C121.276 150.765 119.287 152.621 118.16 154.013C117.033 155.338 114.846 158.387 113.255 160.707C111.731 163.094 108.88 168.33 106.958 172.307C104.969 176.351 102.782 181.852 102.053 184.57C101.324 187.354 99.9318 193.784 99.0038 198.821C98.0758 203.925 97.0152 212.609 96.6838 218.044C96.3524 223.546 95.7558 229.644 95.3581 231.633C95.0267 233.688 93.9661 239.918 93.0381 245.553C92.1764 251.253 90.7844 259.738 90.0553 264.444C89.2598 269.217 88.5307 273.857 88.3981 274.718C88.2656 275.646 87.3376 281.347 86.4096 287.312C85.4816 293.344 84.5536 298.581 84.421 298.912C84.2884 299.31 84.1559 260.732 84.0896 126.968L86.2107 125.974C87.4038 125.51 90.7844 124.714 93.701 124.317C96.6175 123.853 103.18 123.256 108.284 122.991C113.388 122.792 121.872 122.527 127.175 122.461ZM144.277 122.925L146.53 122.991C147.724 122.991 151.966 123.256 156.009 123.654C159.986 123.985 164.825 124.781 166.747 125.311C168.67 125.841 170.261 126.57 170.261 126.902C170.261 127.3 170.261 131.608 170.261 136.513C170.261 141.485 170.261 179.4 170.261 220.894C170.261 262.389 170.128 296.128 169.995 295.93C169.863 295.797 168.471 288.307 167.013 279.358C165.488 270.476 164.162 262.522 164.03 261.793C163.897 261.063 163.632 259.473 163.367 258.147C163.168 256.887 162.837 254.833 162.638 253.507C162.439 252.247 162.107 250.458 161.975 249.53C161.776 248.668 161.511 246.878 161.312 245.553C161.047 244.293 160.318 239.985 159.589 235.941C158.859 231.964 157.998 223.148 157.666 216.387C157.335 209.692 156.606 201.34 156.076 197.827C155.479 194.38 154.882 190.801 154.684 189.873C154.551 189.011 153.623 185.962 152.695 183.112C151.767 180.262 149.646 175.091 144.94 165.016L144.277 122.925ZM56.8463 146.257C59.9617 146.191 65.7948 146.39 69.7719 146.854C73.8153 147.251 77.5936 147.848 78.2565 148.179C79.317 148.776 79.3833 150.234 79.3833 181.256L73.9479 180.792C70.8988 180.527 64.1377 180.262 58.8349 180.262C53.532 180.262 47.4338 180.46 41.2692 180.924V165.148C41.2692 156.465 41.4681 148.975 41.7332 148.577C41.9984 148.179 44.2521 147.517 46.7046 147.119C49.1572 146.787 53.7309 146.39 56.8463 146.257ZM196.708 146.522C200.155 146.589 204.928 146.854 207.314 147.119C209.7 147.384 212.02 147.981 212.484 148.378C213.147 148.975 213.346 152.886 213.28 181.587L210.628 181.123C209.17 180.858 204.199 180.46 199.559 180.262C194.852 179.996 188.091 180.129 184.446 180.527C180.8 180.858 177.287 181.322 176.69 181.587C175.563 181.919 175.497 180.858 175.431 149.107L177.287 148.312C178.347 147.848 181.662 147.251 184.777 146.986C187.892 146.655 193.262 146.456 196.708 146.522ZM127.241 150.102C127.507 150.102 128.567 150.566 129.628 151.03C130.622 151.56 131.881 152.488 132.412 153.085C133.34 154.079 132.942 154.145 127.507 154.145C124.192 154.145 121.806 153.88 122.204 153.549C122.535 153.283 123.662 152.355 124.723 151.56C125.783 150.765 126.91 150.102 127.241 150.102ZM125.982 157.459C129.694 157.459 133.804 157.592 135.063 157.791C137.118 158.122 137.781 158.785 140.565 163.292C142.288 166.076 144.873 171.18 146.332 174.627C147.856 178.14 148.917 180.991 148.85 181.057C148.718 181.123 147.458 180.924 146 180.593C144.542 180.328 138.576 179.864 132.743 179.599C126.711 179.334 118.691 179.466 114.183 179.864C109.808 180.262 106.163 180.527 106.163 180.46C106.096 180.328 107.356 177.478 109.013 173.964C110.67 170.518 112.128 167.535 112.261 167.336C112.393 167.203 112.725 167.203 112.924 167.336C113.123 167.535 112.46 169.656 111.532 171.976C110.604 174.362 110.007 176.483 110.206 176.616C110.405 176.815 111.532 176.55 112.725 175.953C114.382 175.224 117.63 174.959 127.44 174.959C137.25 174.959 140.498 175.224 142.222 175.953C143.415 176.55 144.542 176.815 144.674 176.616C144.873 176.483 144.277 174.23 143.282 171.644C142.288 169.126 141.161 166.607 140.764 166.143C140.3 165.48 138.974 165.281 136.654 165.48C134.798 165.612 132.743 166.143 132.08 166.673C131.351 167.336 129.495 167.734 127.175 167.734C124.988 167.734 123.198 167.336 122.8 166.872C122.469 166.408 120.281 165.811 117.961 165.546C115.708 165.281 113.852 164.95 113.852 164.883C113.852 164.817 114.581 163.624 115.376 162.232C116.238 160.84 117.497 159.249 118.094 158.586C119.022 157.658 120.48 157.459 125.982 157.459ZM37.2921 160.045C38.8167 160.045 38.9492 160.31 38.9492 163.359C38.9492 166.474 38.8167 166.673 37.2921 166.673C35.7675 166.673 35.635 166.474 35.635 163.359C35.635 160.31 35.7675 160.045 37.2921 160.045ZM217.588 160.045C219.113 160.045 219.245 160.31 219.245 163.359C219.245 165.48 218.914 166.806 218.45 166.938C217.986 167.071 217.191 167.071 216.793 166.938C216.263 166.806 215.931 165.48 215.931 163.359C215.931 160.31 216.064 160.045 217.588 160.045ZM118.425 166.938C120.083 167.137 121.541 167.667 121.607 167.999C121.673 168.396 123.927 168.728 126.91 168.728C130.357 168.728 132.345 168.463 132.876 167.866C133.273 167.402 134.997 166.938 136.654 166.872C139.637 166.739 139.703 166.739 141.029 169.523C141.758 171.048 142.354 172.838 142.354 173.5C142.354 174.296 142.023 174.561 141.228 174.23C140.565 173.964 135.394 173.699 129.76 173.5C124.126 173.368 117.895 173.434 115.973 173.766C112.725 174.296 112.526 174.23 112.791 172.97C112.99 172.241 113.653 170.518 114.249 169.126C115.31 166.607 115.376 166.607 118.425 166.938ZM38.2864 167.999C38.6841 167.999 38.9492 170.783 38.9492 174.959C38.9492 179.201 38.6841 181.919 38.2864 181.919C37.8887 181.919 37.6235 179.201 37.6235 174.959C37.6235 170.783 37.8887 167.999 38.2864 167.999ZM216.594 168.662C216.992 168.662 217.257 171.313 217.257 175.29C217.257 179.267 216.992 181.919 216.594 181.919C216.196 181.919 215.931 179.267 215.931 175.29C215.931 171.313 216.196 168.662 216.594 168.662ZM125.452 180.726C129.826 180.659 136.72 180.924 140.697 181.322C144.741 181.72 148.519 182.316 149.182 182.648C149.911 183.046 150.706 185.167 151.568 189.077C152.297 192.259 153.225 196.965 153.623 199.484C154.021 202.069 154.551 208.3 155.28 222.485L152.629 222.021C151.17 221.822 146.53 221.358 142.354 221.093C138.178 220.762 129.362 220.696 122.8 220.828C116.238 221.027 108.947 221.425 106.56 221.756C104.174 222.088 101.523 222.552 100.595 222.75C98.9375 223.082 98.9375 223.016 99.1364 218.906C99.2026 216.652 99.6004 212.344 99.9981 209.427C100.329 206.511 101.257 201.009 101.987 197.164C102.782 193.386 103.776 188.614 104.307 186.559C104.837 184.57 105.5 182.714 105.765 182.449C106.03 182.184 108.748 181.654 111.863 181.388C114.979 181.057 121.077 180.792 125.452 180.726ZM61.8177 182.25C69.1091 182.383 76.069 182.78 79.3833 183.907V252.513L75.8702 252.115C74.0142 251.916 67.1868 251.717 60.8234 251.717C54.46 251.717 47.5001 251.916 45.4452 252.115C42.0647 252.513 41.6669 252.446 41.4018 251.187C41.2692 250.458 41.2029 235.08 41.2029 216.984C41.2692 198.888 41.5344 183.775 41.7995 183.51C42.1309 183.178 43.7881 182.714 45.4452 182.515C47.1686 182.25 54.5263 182.118 61.8177 182.25ZM197.371 182.316C203.403 182.449 209.369 182.78 212.948 183.642L213.28 251.85H175.497V218.376C175.431 191.861 175.63 184.769 176.293 184.106C176.757 183.642 179.275 182.979 181.794 182.648C184.379 182.316 191.339 182.184 197.371 182.316ZM38.2864 183.907C38.7504 183.907 38.9492 186.028 38.8167 189.608C38.6841 192.789 38.419 195.441 38.1538 195.573C37.8224 195.772 37.6235 193.187 37.6235 189.873C37.6235 186.227 37.8887 183.907 38.2864 183.907ZM38.0875 198.092C38.419 198.357 38.6178 200.81 38.6178 203.461C38.6178 206.179 38.419 208.632 38.0875 208.897C37.8224 209.228 37.6235 206.776 37.6235 203.461C37.6235 200.213 37.8224 197.761 38.0875 198.092ZM38.0875 211.349C38.419 211.615 38.5515 214.332 38.419 217.315C38.2864 220.298 38.0875 222.883 37.8887 223.016C37.7561 223.214 37.6235 220.563 37.6235 217.05C37.6235 213.603 37.8224 211.018 38.0875 211.349ZM132.412 223.413C139.902 223.546 147.79 223.944 149.977 224.341C152.165 224.739 154.418 225.468 154.949 226.065C155.81 226.926 156.009 230.44 156.407 267.095L154.882 266.631C154.021 266.366 150.64 265.637 147.326 265.041C143.084 264.245 137.449 263.98 127.44 263.98C117.497 263.98 111.863 264.245 107.555 265.041C104.307 265.637 100.926 266.3 98.6061 266.764V226.993L100.131 226.065C100.926 225.601 102.649 224.938 103.909 224.673C105.168 224.408 109.079 224.01 112.526 223.745C115.973 223.413 124.921 223.347 132.412 223.413ZM38.1538 225.004C38.419 225.004 38.5515 226.926 38.419 229.18C38.3527 231.434 38.1538 234.218 38.0212 235.278C37.955 236.405 37.8224 234.549 37.7561 231.169C37.6898 227.788 37.8224 225.004 38.1538 225.004ZM38.0875 241.907C38.2201 243.763 38.2201 246.414 38.0875 247.873C37.955 249.331 37.8887 247.873 37.8887 244.558C37.8887 241.31 37.955 240.117 38.0875 241.907ZM96.0872 246.878C96.3524 246.878 96.6175 258.081 96.6175 296.592H93.9661C92.4415 296.592 91.1821 296.99 90.9833 297.454C90.8507 297.918 90.2541 301.431 89.7238 305.21C88.9284 310.579 87.6027 315.285 79.1845 338.684L18.5333 399.666L14.4236 407.952C11.3082 414.382 10.5791 416.37 11.2419 416.768C11.7059 417.099 29.603 417.232 51.0795 417.099C76.7319 416.967 89.989 417.165 89.989 417.563C89.989 417.961 89.4587 420.082 88.7958 422.203C87.669 425.915 87.4701 426.247 85.6141 426.313C84.5536 426.313 81.7696 426.114 79.3833 425.849C76.997 425.584 67.7834 425.12 58.8349 424.921C49.8863 424.722 34.1104 424.258 23.7036 423.86C13.2968 423.529 4.74598 423.131 4.74598 423.065C4.6797 422.999 5.14369 420.811 5.80655 418.226C6.4694 415.707 7.79511 411.531 8.78939 408.946C9.84996 406.427 11.6397 402.848 12.7665 400.992C13.9597 399.202 19.7928 392.971 25.7584 387.138C31.7241 381.305 41.6669 371.627 47.8315 365.595C53.9297 359.564 60.5583 352.802 62.4143 350.615C64.3365 348.494 66.9217 345.18 68.1811 343.324C69.4405 341.534 71.8268 337.822 73.5502 335.038C75.2073 332.32 77.5936 328.012 78.7205 325.427C79.9136 322.908 81.9022 318.268 83.1616 315.152C84.7524 311.241 85.8793 306.602 87.0724 299.575C87.9341 294.14 89.8564 282.208 91.3147 273.061C92.773 263.98 94.3638 254.369 94.7615 251.717C95.1592 249.066 95.7558 246.878 96.0872 246.878ZM158.992 249.53C159.257 250.458 161.643 263.914 164.229 279.358C167.079 296.394 169.598 309.253 170.526 311.838C171.387 314.224 172.713 317.671 173.509 319.461C174.304 321.317 175.431 323.836 176.027 325.095C176.624 326.421 178.745 330.265 180.734 333.712C182.722 337.225 185.838 342.13 187.76 344.649C189.616 347.234 202.144 360.359 215.533 373.815C228.923 387.337 240.589 399.268 241.385 400.329C242.246 401.456 243.705 403.842 244.566 405.632C245.494 407.488 247.085 411.465 248.013 414.448C248.941 417.431 249.737 420.679 249.737 421.54C249.737 423.131 249.538 423.264 244.964 423.529C242.313 423.728 235.485 423.993 229.851 424.192C224.217 424.391 214.672 424.722 208.64 424.987C202.608 425.186 194.256 425.517 190.08 425.783C185.838 426.048 178.679 426.18 166.018 426.18L165.157 422.535C164.693 420.546 164.295 418.558 164.295 418.094C164.229 417.431 172.713 417.232 204.331 417.232C226.404 417.232 244.434 417.033 244.434 416.768C244.434 416.503 243.572 414.448 242.578 412.26C241.517 410.139 239.794 406.494 238.8 404.306C237.143 400.859 233.165 396.683 175.829 340.009L171.056 326.421C167.41 316.014 166.151 311.374 165.554 306.535C165.157 303.088 164.693 299.443 164.56 298.448C164.229 296.791 163.963 296.592 158.263 296.592L158.329 272.266C158.329 257.086 158.594 248.535 158.992 249.53ZM38.0875 254.833C38.2201 256.49 38.2201 259.34 38.0875 261.13C37.955 262.986 37.8887 261.66 37.8887 258.147C37.8887 254.7 37.955 253.242 38.0875 254.833ZM63.1434 253.838C70.4348 253.971 77.0633 254.302 79.3833 254.833V286.981L62.6794 287.047C53.4657 287.047 44.7824 287.246 40.9378 287.975L41.1367 271.802C41.2029 262.919 41.5344 255.363 41.8658 255.098C42.1309 254.766 44.1195 254.302 46.1743 254.103C48.2292 253.838 55.852 253.706 63.1434 253.838ZM195.714 253.772C204.464 253.838 212.02 254.103 212.484 254.369C213.081 254.766 213.28 258.876 213.28 287.975L209.833 287.578C207.911 287.312 200.354 287.114 193.063 287.18C185.771 287.18 178.811 287.379 175.497 287.975L175.829 254.567L177.817 254.103C178.944 253.838 186.964 253.706 195.714 253.772ZM38.0875 268.753C38.2201 270.41 38.2201 273.26 38.0875 275.05C37.955 276.906 37.8887 275.58 37.8887 272.067C37.8887 268.62 37.955 267.162 38.0875 268.753ZM126.115 266.234C129.031 266.234 135.129 266.433 139.703 266.83C144.277 267.162 149.182 267.825 150.64 268.222C152.098 268.62 153.954 269.415 156.208 271.073L156.274 348.295L154.816 348.03C153.954 347.831 149.712 347.168 145.337 346.572C139.106 345.776 134.135 345.644 122.137 345.909C113.785 346.108 105.566 346.572 103.909 346.969C102.252 347.367 100.396 347.831 99.7992 348.03C98.6724 348.295 98.6061 346.174 98.6061 310.048C98.6061 274.453 98.6724 271.669 99.7329 270.41C100.396 269.681 102.583 268.686 104.572 268.156C106.56 267.692 111.068 267.029 114.515 266.83C117.961 266.565 123.198 266.3 126.115 266.234ZM38.0875 283.004C38.2201 284.86 38.2201 287.511 38.0875 288.97C37.955 290.428 37.8887 288.97 37.8887 285.655C37.8887 282.407 37.955 281.214 38.0875 283.004ZM63.8063 289.036C71.0976 289.102 77.5936 289.434 78.2565 289.632C79.2507 289.964 79.3833 291.223 79.3833 303.552C79.3833 316.147 79.2507 317.472 77.925 320.654C77.1296 322.576 75.1411 326.487 73.5502 329.404C71.9594 332.32 68.9765 337.225 66.9217 340.341C64.8668 343.39 60.1606 348.958 49.8863 359.497L40.9378 359.895V325.294C40.9378 298.316 41.1367 290.56 41.7995 290.163C42.1972 289.898 44.3846 289.5 46.5721 289.235C48.7595 288.97 56.5149 288.903 63.8063 289.036ZM198.697 289.102C205.06 289.301 210.96 289.699 213.28 290.627V359.563L209.17 359.166C205.259 358.768 204.729 358.503 201.017 355.122C198.83 353.134 195.449 349.687 193.527 347.433C191.604 345.18 188.82 341.534 187.296 339.346C185.771 337.225 182.523 331.458 175.497 317.804V304.215C175.497 294.074 175.696 290.56 176.359 290.163C176.757 289.898 179.408 289.5 182.126 289.235C184.843 288.97 192.334 288.903 198.697 289.102ZM38.0875 295.93C38.2201 297.587 38.2201 300.437 38.0875 302.227C37.955 304.083 37.8887 302.757 37.8887 299.244C37.8887 295.797 37.955 294.339 38.0875 295.93ZM96.6175 297.918L96.6838 404.969L94.2975 408.946C92.9718 411.134 91.7787 413.652 91.3147 415.906H51.8749C30.1996 415.906 12.4351 415.707 12.4351 415.442C12.4351 415.177 14.0259 411.796 19.2625 400.992L79.9136 340.009L82.565 332.718C84.0896 328.741 86.277 322.643 87.5364 319.129C88.7958 315.683 90.1878 310.91 90.5193 308.524C90.917 306.204 91.4473 302.823 91.6461 301.1C92.0438 298.051 92.1101 297.918 96.6175 297.918ZM158.263 297.918H160.583C162.041 297.918 163.035 298.316 163.234 298.912C163.433 299.509 163.566 300.901 163.566 302.094C163.566 303.287 164.03 306.469 164.56 309.187C165.024 311.971 167.41 319.991 174.171 340.009L236.148 401.854L239.33 408.548C241.053 412.26 242.313 415.442 242.18 415.707C242.048 415.972 226.007 416.105 206.519 416.105C187.097 416.105 169.465 416.039 163.566 415.906L162.174 412.791C161.445 411.067 160.251 408.88 159.522 407.952C158.263 406.361 158.197 404.903 158.263 352.14V297.918ZM38.0875 309.849C38.2201 311.507 38.2201 314.291 38.0875 316.147C37.955 317.936 37.8224 316.611 37.8224 313.164C37.8224 309.717 37.955 308.192 38.0875 309.849ZM38.0875 323.769C38.2201 325.427 38.2201 328.211 38.0875 330.066C37.955 331.856 37.8224 330.531 37.8224 327.084C37.8224 323.637 37.955 322.112 38.0875 323.769ZM38.0875 338.021C38.2201 339.81 38.2201 342.528 38.0875 343.986C37.955 345.445 37.8224 343.986 37.8224 340.672C37.8224 337.358 37.955 336.165 38.0875 338.021ZM38.0875 350.946C38.2201 352.604 38.2201 355.388 38.0875 357.243C37.955 359.033 37.8224 357.707 37.8224 354.261C37.8224 350.814 37.955 349.289 38.0875 350.946ZM129.429 348.626C139.504 348.825 147.525 349.223 149.977 349.753C152.231 350.217 154.551 351.079 155.148 351.609C156.274 352.537 156.341 354.526 156.208 401.655L153.756 401.124C152.364 400.859 148.718 400.329 145.669 399.998C142.553 399.666 133.273 399.335 125.12 399.335C116.901 399.401 108.085 399.666 105.566 399.998C102.981 400.329 100.396 400.727 99.7329 400.926C98.6724 401.323 98.6061 399.865 98.6061 377.461C98.6061 362.878 98.8712 353.068 99.2689 352.272C99.6004 351.543 100.727 350.615 101.721 350.217C102.716 349.82 105.632 349.223 108.217 348.958C110.736 348.626 120.281 348.494 129.429 348.626ZM206.983 360.823L209.966 361.287C211.556 361.552 213.015 361.751 213.081 361.817C213.147 361.883 213.28 363.143 213.412 364.667C213.479 366.258 213.412 367.451 213.28 367.451C213.081 367.385 211.556 365.927 209.966 364.071L206.983 360.823ZM47.7652 361.618L41.2692 368.313L41.0704 365.463C40.9378 363.673 41.2029 362.414 41.7332 362.082C42.1972 361.817 43.7218 361.618 47.7652 361.618ZM38.0875 363.938C38.2201 364.999 38.2201 367.12 38.0875 368.578C37.955 370.037 37.8224 369.109 37.8224 366.59C37.8224 364.005 37.955 362.811 38.0875 363.938ZM124.259 402.119C133.737 402.052 143.15 402.384 147.127 402.848C150.839 403.312 154.286 404.041 154.882 404.571C155.744 405.234 155.081 405.3 151.303 404.903C148.718 404.571 137.516 404.372 126.446 404.372C115.31 404.372 104.638 404.571 102.716 404.836C100.595 405.168 99.2689 405.102 99.3352 404.704C99.4015 404.372 100.528 403.776 101.854 403.444C103.18 403.047 105.102 402.649 106.229 402.516C107.289 402.384 115.443 402.185 124.259 402.119ZM124.126 406.096C133.605 406.03 144.343 406.295 147.989 406.692C153.822 407.289 154.816 407.62 156.407 409.211C157.467 410.139 158.263 411.2 158.263 411.465C158.263 411.73 155.28 411.995 145.006 411.995L137.449 426.909L138.908 441.492C139.703 449.513 140.233 456.075 140.167 456.141C140.101 456.208 138.444 456.406 136.455 456.473C134.533 456.605 132.809 456.473 132.677 456.208C132.544 455.942 132.279 450.308 132.146 443.613C132.014 436.786 131.417 428.898 130.821 425.385C130.224 422.004 129.362 418.491 128.898 417.563C128.368 416.503 127.573 415.906 126.579 415.906C125.783 415.972 124.656 416.635 124.126 417.431C123.662 418.292 122.734 421.341 122.137 424.258C121.408 427.705 120.944 434.068 120.414 456.075L116.172 456.208C113.785 456.34 111.863 456.208 111.863 456.075C111.863 455.876 112.128 453.556 112.526 450.905C112.924 448.253 113.388 445.204 113.52 444.144C113.653 443.017 114.316 438.509 116.172 426.048L114.183 421.805C113.056 419.486 111.532 416.37 109.212 411.995H102.583C98.6061 411.995 95.9547 411.73 95.9547 411.332C95.9547 410.935 96.6175 409.94 97.4129 409.079C98.4072 408.018 100.064 407.355 102.252 407.024C104.041 406.759 105.831 406.494 106.229 406.361C106.56 406.228 114.647 406.096 124.126 406.096ZM94.629 413.984H108.217L113.918 426.247L113.189 432.544C112.725 435.991 111.996 441.227 111.532 444.144C111.068 447.06 110.471 450.839 110.272 452.562C109.941 455.014 109.543 455.876 108.35 456.274C107.555 456.605 105.632 458.793 104.108 461.113C102.649 463.433 100.661 466.681 98.1421 471.321L85.6804 471.718L86.1444 460.582C86.4096 454.418 87.1387 445.867 87.7353 441.492C88.2656 437.117 89.5913 430.224 90.6518 426.247C91.6461 422.203 92.9718 417.828 93.5684 416.436L94.629 413.984ZM146.332 413.984H159.589L160.583 416.304C161.113 417.563 162.041 420.811 162.571 423.463C163.168 426.114 164.096 431.351 164.626 435.195C165.157 439.04 165.819 448.651 166.549 470.923L154.286 471.321L153.424 469.332C153.026 468.272 151.237 465.222 149.447 462.571C147.26 459.19 145.735 457.533 144.343 457.069C143.216 456.738 142.354 456.208 142.354 455.942C142.354 455.677 141.692 449.181 139.504 427.572L146.332 413.984ZM126.446 417.961C126.777 417.961 127.374 419.088 127.772 420.48C128.103 421.805 128.766 425.053 129.164 427.572C129.561 430.157 129.826 438.775 129.826 446.795C129.826 454.816 129.628 464.825 129.429 469.001C129.164 473.177 128.7 480.07 128.368 484.246C127.97 488.422 127.507 492.002 127.308 492.201C127.175 492.399 127.109 482.324 127.241 469.862C127.308 457.334 127.175 447.126 126.91 447.126C126.645 447.126 126.446 449.248 126.446 451.766C126.446 454.352 126.247 456.738 126.115 457.069C125.916 457.467 125.717 466.018 125.651 476.159C125.651 487.295 125.385 493.327 125.054 491.538C124.789 489.881 124.325 484.71 124.06 479.938C123.795 475.232 123.397 467.874 123.198 463.698C122.933 459.522 122.8 450.706 122.867 444.144C122.933 437.581 123.331 429.959 123.728 427.241C124.126 424.523 124.789 421.341 125.187 420.148C125.518 418.955 126.115 417.961 126.446 417.961ZM5.60769 426.247C6.27055 426.379 15.9482 426.711 47.5663 427.572V444.144L40.0761 443.68C35.9664 443.348 26.6864 442.685 19.3951 442.089C12.1037 441.492 5.60769 440.763 4.94484 440.432C4.34827 440.1 3.42027 438.708 3.02256 437.383C2.42599 435.328 2.49228 434.002 3.35399 430.423C4.28198 426.909 4.6797 426.048 5.60769 426.247ZM247.682 426.114C251.062 425.915 251.062 425.915 251.792 428.434C252.256 429.76 252.521 432.411 252.521 434.201C252.454 436.057 251.924 438.178 251.394 439.04C250.864 439.835 249.803 440.829 249.074 441.161C248.345 441.559 238.866 442.42 227.995 443.149C217.191 443.879 208.043 444.475 207.778 444.475C207.513 444.475 207.314 440.763 207.314 427.904L209.104 427.837C210.098 427.837 211.822 427.705 212.948 427.639C214.009 427.506 221.499 427.241 229.52 426.909C237.54 426.644 244.102 426.445 244.169 426.379C244.235 426.313 245.826 426.18 247.682 426.114ZM70.6999 428.368C79.317 428.832 86.4096 429.296 86.4759 429.362C86.6084 429.495 86.0781 433.472 84.2222 446.795L80.9742 446.729C79.1845 446.729 76.069 446.53 74.0805 446.265C72.0256 446.066 66.524 445.536 61.8177 445.138C57.0451 444.674 53.1343 444.343 53.0017 444.276C52.9355 444.21 52.8692 441.028 52.8029 437.184C52.7366 433.339 52.6703 429.76 52.604 429.097C52.5377 428.5 53.068 427.904 53.7972 427.771C54.46 427.705 62.0828 427.97 70.6999 428.368ZM50.2178 427.904C50.6155 427.904 50.8806 431.351 50.8806 436.852C50.8806 442.42 50.6155 445.801 50.2178 445.801C49.7538 445.801 49.5549 442.42 49.5549 436.852C49.5549 431.351 49.7538 427.904 50.2178 427.904ZM202.21 428.235L202.276 436.123C202.276 440.432 202.144 444.21 202.011 444.475C201.812 444.74 195.714 445.337 188.423 445.801C181.131 446.199 173.641 446.663 168.537 446.928L167.477 438.244C166.946 433.472 166.482 429.495 166.482 429.428C166.482 429.362 173.376 429.097 181.794 428.898C190.146 428.633 197.172 428.301 197.305 428.103C197.504 427.97 198.631 427.97 202.21 428.235ZM42.2635 448.452H60.1606C69.9708 448.452 78.1239 448.717 78.2565 448.982C78.389 449.248 78.389 450.706 78.0576 455.081H42.2635V448.452ZM176.16 448.452H211.954V454.418H176.16V448.452ZM59.8954 457.533C68.9765 457.666 76.7319 457.732 77.1959 457.732C77.7262 457.732 78.0576 458.859 78.0576 464.361H42.5949V461.245C42.5949 459.522 42.7938 457.931 42.9926 457.732C43.2578 457.533 50.8806 457.467 59.8954 457.533ZM176.16 457.069H211.623L211.424 464.029L176.16 464.361V457.069ZM120.878 458.461C120.944 458.66 121.143 462.637 121.673 475.961L119.221 476.425C117.895 476.624 116.304 477.021 115.641 477.22C114.713 477.551 114.515 477.286 114.515 475.828C114.515 474.834 114.846 472.779 115.244 471.321C115.641 469.862 116.371 467.609 116.901 466.349C117.497 465.09 118.558 462.77 119.287 461.113C120.083 459.522 120.745 458.329 120.878 458.461ZM143.68 458.395L146 461.245C147.26 462.77 149.513 466.283 150.905 469.001C152.297 471.718 153.954 475.894 154.485 478.281C155.081 480.667 155.545 482.921 155.611 483.252C155.611 483.65 152.828 483.849 148.121 483.716C142.288 483.583 139.637 483.782 135.726 484.843C132.942 485.572 130.556 486.036 130.423 485.903C130.224 485.705 130.29 485.174 130.556 484.578C130.821 484.047 131.749 483.583 132.544 483.517C133.406 483.517 135.063 483.119 136.389 482.655C137.648 482.191 139.04 481.131 139.438 480.203C140.034 479.01 139.968 477.684 139.305 474.502C138.775 472.182 137.317 467.741 136.057 464.56C134.732 461.378 133.671 458.66 133.737 458.594C133.737 458.461 135.925 458.395 143.68 458.395ZM118.16 459.124L115.641 466.084C113.719 471.387 113.189 473.972 113.189 481.595L115.973 482.589C117.564 483.119 119.552 483.65 120.48 483.716C121.607 483.849 122.137 484.379 122.27 485.439C122.469 486.831 122.336 486.898 119.95 486.235C118.624 485.837 115.244 485.108 112.526 484.511C109.079 483.849 106.096 483.65 102.915 483.981C100.329 484.18 97.8107 484.578 97.3467 484.843C96.5512 485.174 96.4849 484.71 96.8827 482.258C97.1478 480.601 98.1421 477.353 99.0038 474.966C99.9318 472.58 101.854 468.603 103.312 466.018C104.837 463.499 106.494 460.848 107.091 460.251C107.82 459.323 109.079 459.058 118.16 459.124ZM131.881 458.726L133.141 461.046C133.804 462.306 135.262 466.15 136.322 469.531C137.449 472.911 138.377 476.226 138.377 476.955C138.377 478.016 138.112 478.148 137.184 477.75C136.588 477.419 134.93 476.955 131.086 476.292V472.182C131.086 469.862 131.285 465.952 131.484 463.366L131.881 458.726ZM211.556 466.681V472.182C211.556 477.154 211.49 477.618 210.231 477.684C209.502 477.75 201.614 477.75 192.665 477.75C183.783 477.684 176.425 477.618 176.359 477.485C176.293 477.419 176.16 475.033 176.094 472.315C176.094 469.597 176.027 467.145 176.027 466.88C176.027 466.614 184.048 466.482 211.556 466.681ZM42.5286 467.012H77.9913V478.281H42.5286V467.012ZM120.281 477.684C121.541 477.618 121.74 477.949 121.74 479.938C121.74 481.926 121.541 482.258 120.281 482.258C119.42 482.258 117.829 481.993 116.636 481.595C115.443 481.263 114.382 480.534 114.316 479.938C114.249 479.341 115.045 478.745 116.503 478.347C117.763 478.015 119.42 477.75 120.281 477.684ZM132.279 477.618C132.876 477.618 134.334 477.883 135.527 478.281C136.72 478.678 137.648 479.407 137.648 479.938C137.648 480.468 136.72 481.263 135.527 481.595C134.334 481.993 132.677 482.258 131.881 482.258C130.821 482.258 130.357 481.86 130.357 480.932C130.357 480.203 130.556 479.142 130.754 478.612C130.953 478.082 131.682 477.618 132.279 477.618ZM193.328 480.269V482.921C193.328 484.379 193.063 485.572 192.665 485.572C192.334 485.572 192.002 486.036 192.002 486.566C192.002 487.097 192.334 487.561 192.665 487.561C193.063 487.561 193.328 488.754 193.328 490.212C193.328 491.67 193.063 492.863 192.665 492.863C192.334 492.863 192.002 493.327 192.002 493.858C192.002 494.388 192.334 494.852 192.665 494.852C193.063 494.852 193.328 495.913 193.328 499.492H166.814L167.211 497.039C167.477 495.647 167.941 493.46 168.272 492.201C168.67 490.941 169.73 488.555 170.658 486.898C171.586 485.241 173.045 483.119 174.039 482.125C175.696 480.269 175.762 480.269 193.328 480.269ZM193.991 480.269H213.545L215.069 482.457C215.865 483.65 217.257 486.367 218.185 488.555C219.047 490.742 220.041 494.123 220.836 499.558L193.991 499.492V493.195C193.991 489.218 194.256 487.03 194.654 487.229C195.051 487.428 195.316 487.097 195.316 486.566C195.316 486.036 195.051 485.705 194.654 485.903C194.256 486.102 193.991 485.042 193.991 483.252V480.269ZM40.9378 480.932H59.2326L59.1 500.155H33.2487L33.779 496.377C34.1104 494.255 35.1047 490.875 35.9664 488.886C36.8944 486.898 38.419 484.313 39.2807 483.119L40.9378 480.932ZM80.0462 480.932L82.0347 483.385C83.0953 484.777 84.421 487.229 85.0176 488.886C85.5479 490.477 86.2107 493.593 87.0061 499.492L84.3547 499.558C82.8964 499.625 76.997 499.757 71.2302 499.89C65.4634 500.022 60.7571 499.89 60.7571 499.625C60.7571 499.359 60.6246 498.034 60.4257 496.642C60.1606 494.653 60.2931 494.255 61.1548 494.521C61.6851 494.719 62.1491 494.454 62.1491 493.858C62.1491 493.261 61.8177 492.797 61.42 492.665C61.0223 492.598 60.5583 491.538 60.4257 490.345C60.2268 488.886 60.4257 488.091 61.1548 487.892C61.6851 487.693 62.1491 487.097 62.1491 486.566C62.1049 485.903 61.7072 485.705 60.956 485.97C60.028 486.301 59.8954 486.102 60.2931 484.777C60.5583 483.915 60.7571 482.722 60.7571 482.059C60.8234 480.998 61.6851 480.932 80.0462 480.932ZM146 484.313C146.332 484.246 148.585 484.578 150.972 484.975C153.424 485.373 154.949 485.903 154.617 486.235C154.22 486.5 152.43 487.03 150.64 487.362C148.784 487.693 144.741 488.025 141.692 488.157C138.576 488.223 135.262 488.025 134.4 487.693C132.743 487.097 132.809 487.03 135.394 486.235C136.853 485.705 139.637 485.108 141.692 484.843C143.68 484.644 145.602 484.379 146 484.313ZM107.555 485.241C110.471 485.439 114.316 486.036 116.172 486.633C119.088 487.561 119.287 487.759 118.16 488.356C117.299 488.82 113.785 488.953 109.212 488.687C104.837 488.489 100.396 487.958 98.9375 487.362C96.4187 486.434 96.3524 486.367 97.9432 485.97C98.8049 485.771 100.197 485.439 100.926 485.307C101.655 485.108 104.638 485.108 107.555 485.241ZM179.607 502.143L208.308 502.077L210.43 507.048C211.623 509.832 212.617 512.351 212.617 512.749C212.617 513.147 206.784 513.412 196.51 513.412C187.694 513.412 179.342 513.611 177.95 513.876C176.094 514.274 175.431 514.141 175.431 513.544C175.431 513.08 175.895 511.755 176.425 510.562C176.889 509.368 177.817 506.982 178.48 505.259L179.607 502.143ZM45.6441 502.806H75.0748L76.997 507.976C78.1239 510.76 79.1182 513.346 79.1845 513.611C79.2507 513.876 70.8325 514.075 41.6007 514.075L42.9264 510.296C43.7218 508.175 44.6498 505.656 44.9812 504.662L45.6441 502.806Z" fill="#FEFEFE"/>
<path d="M42.7938 158.52C42.7275 155.404 42.9264 154.609 43.9869 154.079C44.6498 153.681 45.6441 153.35 46.1081 153.35C46.5058 153.35 47.5001 153.615 48.2292 154.012C49.3561 154.543 49.5549 155.338 49.5549 162.298H42.9264L42.7938 158.52Z" fill="#464646"/>
<path d="M203.867 158.52C203.801 155.736 204 154.675 204.729 154.476C205.193 154.277 206.32 154.079 207.182 154.079C207.977 154.012 209.104 154.476 209.634 155.007C210.231 155.603 210.628 157.26 210.628 162.298H204L203.867 158.52Z" fill="#464646"/>
<path d="M118.691 200.942C118.823 197.628 118.889 197.562 121.475 196.7C122.933 196.302 124.457 195.905 124.921 195.838C125.518 195.772 125.651 196.833 125.385 199.617C125.187 201.672 124.921 203.594 124.723 203.925C124.59 204.19 123.132 204.389 118.492 204.389L118.691 200.942Z" fill="#464646"/>
<path d="M129.296 201.738C129.23 201.208 129.031 199.617 128.832 198.291C128.501 196.17 128.633 195.772 129.561 195.772C130.224 195.772 132.014 196.302 133.605 196.965C136.389 198.092 136.455 198.158 136.389 204.389H133.406C131.749 204.389 130.224 204.058 129.959 203.594C129.694 203.13 129.429 202.268 129.296 201.738Z" fill="#464646"/>
<path d="M107.555 203.395C108.483 202.467 110.803 201.009 112.725 200.081C114.581 199.153 116.371 198.424 116.702 198.424C116.967 198.424 117.365 198.888 117.564 199.418C117.829 199.948 117.829 201.406 117.63 202.6C117.365 204.124 116.636 204.986 115.244 205.715C113.785 206.444 113.123 207.306 112.857 208.897C112.526 210.952 112.46 211.018 105.897 211.018V208.035C105.897 205.715 106.295 204.654 107.555 203.395Z" fill="#464646"/>
<path d="M139.372 206.046C137.184 204.853 136.985 204.522 137.118 201.804L137.25 198.954L139.637 199.418C140.962 199.683 142.951 200.346 144.012 200.876C145.072 201.473 146.53 202.401 147.127 202.997C147.79 203.594 148.121 204.257 147.989 204.588C147.79 204.853 147.922 205.185 148.32 205.384C148.718 205.582 148.983 207.041 148.983 211.681H146.332C144.873 211.681 143.216 211.548 142.686 211.349C142.089 211.15 141.692 210.222 141.692 209.228C141.692 207.77 141.161 207.041 139.372 206.046Z" fill="#464646"/>
<path d="M118.359 212.741C118.293 211.548 118.492 210.355 118.823 210.09C119.088 209.825 120.679 209.626 125.12 209.626V214.929H121.806C118.492 214.929 118.492 214.929 118.359 212.741Z" fill="#464646"/>
<path d="M129.76 214.929V212.277V209.626H136.389V214.929H129.76Z" fill="#464646"/>
<path d="M44.1194 158.122C44.0532 156.73 44.3183 155.338 44.5834 155.073C44.9149 154.808 45.7766 154.675 46.572 154.808C47.6326 154.94 47.8977 155.537 48.0966 157.857C48.2291 160.575 48.1628 160.641 46.2406 160.641C44.3846 160.641 44.252 160.442 44.1194 158.122Z" fill="#FEFEFE"/>
<path d="M206.32 160.972C205.524 161.238 205.325 160.707 205.325 158.321C205.325 155.471 205.392 155.338 207.314 155.338C209.17 155.338 209.303 155.471 209.303 157.99C209.303 159.912 209.037 160.641 208.308 160.641C207.778 160.641 206.85 160.774 206.32 160.972Z" fill="#FEFEFE"/>
<path d="M119.022 201.075C118.956 199.352 119.287 198.888 121.209 198.092C122.469 197.562 123.662 197.164 123.993 197.098C124.258 197.098 124.457 197.761 124.457 198.623C124.457 199.418 124.325 200.744 124.126 201.605C123.861 202.799 123.33 203.064 121.474 203.064C119.353 203.064 119.154 202.865 119.022 201.075Z" fill="#FEFEFE"/>
<path d="M130.821 202.6C130.688 202.268 130.423 200.943 130.158 199.617C129.893 198.225 129.826 197.098 130.025 197.098C130.29 197.098 131.484 197.562 132.743 198.092C134.665 198.888 135.063 199.418 135.063 201.075C135.063 202.865 134.864 203.064 133.074 203.064C132.014 203.064 130.953 202.865 130.821 202.6Z" fill="#FEFEFE"/>
<path d="M108.217 203.992L111.532 202.202C113.388 201.274 115.177 200.479 115.641 200.412C116.105 200.412 116.371 201.208 116.304 202.202C116.238 203.461 115.641 204.191 114.515 204.655C113.454 205.052 111.996 205.052 108.217 203.992Z" fill="#FEFEFE"/>
<path d="M140.034 204.92C138.841 204.323 138.377 203.528 138.377 202.268C138.377 201.208 138.642 200.412 139.04 200.412C139.438 200.412 141.029 201.009 142.686 201.738C144.343 202.467 145.801 203.329 146 203.727C146.199 204.124 145.271 204.655 144.012 205.052C142.354 205.516 141.228 205.516 140.034 204.92Z" fill="#FEFEFE"/>
<path d="M109.212 210.355C107.555 210.355 107.223 210.09 107.223 208.698C107.223 207.571 107.621 207.041 108.416 207.041C109.013 207.041 110.14 207.372 110.803 207.836C111.465 208.3 111.863 209.096 111.664 209.56C111.399 209.957 110.272 210.355 109.212 210.355Z" fill="#FEFEFE"/>
<path d="M143.216 209.228C143.084 208.764 143.68 208.101 144.542 207.77C145.337 207.372 146.398 207.107 146.862 207.107C147.259 207.041 147.657 207.77 147.657 208.698C147.657 210.156 147.392 210.355 145.536 210.222C144.409 210.09 143.349 209.626 143.216 209.228Z" fill="#FEFEFE"/>
<path d="M122.137 214.332C120.082 214.332 119.817 214.133 119.817 212.675C119.817 211.217 120.082 211.018 122.137 211.018C124.192 211.018 124.457 211.217 124.457 212.675C124.457 214.133 124.192 214.332 122.137 214.332Z" fill="#FEFEFE"/>
<path d="M133.273 214.2C131.351 214.332 131.086 214.133 131.086 212.675C131.086 211.217 131.351 211.018 133.406 211.018C135.394 211.018 135.726 211.217 135.593 212.542C135.461 213.669 134.93 214.067 133.273 214.2Z" fill="#FEFEFE"/>
</svg>
