<svg width="855" height="183" viewBox="0 0 855 183" fill="none" xmlns="http://www.w3.org/2000/svg">
<path d="M226.721 11.2561C221.836 8.8134 213.286 5.35288 207.587 3.92796C202.09 2.29949 190.488 0.874573 182.142 0.874573C173.592 0.874573 161.379 2.2995 154.661 4.13153C147.944 5.96357 138.784 10.0347 134.305 12.8846C129.827 15.938 122.906 22.0447 119.038 26.3195C114.967 30.7978 109.471 38.7366 106.825 44.0292C102.55 52.3751 101.125 53.8 97.6645 52.5786C95.4254 51.7644 90.3364 50.543 86.4688 49.7288C82.6011 48.9146 76.6979 48.9146 73.2374 49.7288C69.9805 50.543 64.0772 54.2071 60.6167 57.464C56.9526 60.9245 53.085 67.2349 51.8636 71.5097C50.8459 75.5809 49.8281 81.077 49.8281 83.7232C49.8281 86.166 48.1996 88.8122 46.3676 89.4229C44.332 90.0336 41.2786 91.4585 39.6501 92.4763C38.0216 93.4941 34.154 95.3261 31.1006 96.3439C27.8436 97.5652 25.4009 99.8044 25.4009 101.433C25.4009 103.061 23.7725 105.097 21.9404 105.911C19.9048 106.725 16.6479 108.761 14.6122 110.593C12.7802 112.222 11.1518 115.071 11.1518 116.7C11.1518 118.735 12.7802 118.125 16.6479 114.257C19.9048 111.407 26.0117 107.133 30.4899 104.893C34.9683 102.451 42.7035 100.008 47.7925 99.3973C53.2886 98.3795 61.6345 98.9902 68.1484 100.415C74.2552 101.84 82.8047 105.301 87.0794 107.947C91.1506 110.39 97.2574 115.682 100.718 119.346C103.975 122.807 107.232 127.489 107.842 129.524C108.657 132.374 109.674 132.577 114.56 130.949C117.613 129.728 122.295 129.117 125.145 129.728C127.995 130.338 132.066 132.781 138.376 139.091L142.04 130.542C144.076 125.656 148.758 118.125 152.422 113.646C156.086 109.168 163.007 103.265 168.096 100.619C175.424 96.5475 179.902 95.5297 192.32 95.7332C205.551 95.7332 209.215 96.5475 218.782 101.84C224.889 105.301 233.846 112.222 238.528 116.903C243.209 121.789 248.502 127.692 250.13 129.931C251.759 132.17 255.016 139.498 257.255 146.216C259.698 153.137 261.53 162.297 260.716 176.75L250.538 171.864C241.784 167.793 238.12 167.183 226.925 168.2C219.189 168.811 210.64 171.05 206.162 173.493C201.887 175.936 198.426 178.175 198.426 178.785C198.426 179.396 203.719 179.193 210.233 178.582C216.747 177.768 226.11 178.175 232.014 179.6C237.917 181.025 246.466 185.096 262.548 197.716L269.672 189.778C273.54 185.503 280.054 181.025 283.921 180.007C287.789 178.785 294.506 177.768 306.313 177.768L303.463 171.254C301.427 166.368 301.02 162.094 302.445 155.376C303.463 149.88 306.313 143.977 309.773 140.516C314.659 135.631 315.473 132.781 316.084 121.178C316.491 112.832 318.526 103.876 321.173 97.7688C324.837 89.83 327.483 87.1837 334.404 83.9268C341.325 80.8734 344.378 80.4663 350.078 82.0947C354.149 83.3161 359.238 86.9802 362.088 90.8478C364.734 94.3083 367.584 99.6008 368.398 102.451C369.213 105.3 370.638 107.947 371.248 108.557C372.062 109.168 373.487 112.629 374.709 116.293C376.337 122.196 377.966 123.621 386.922 126.471C392.826 128.303 399.95 132.17 403.003 135.02C406.057 137.87 410.128 143.773 415.624 156.394L418.067 150.287C419.288 147.03 419.899 140.923 419.695 137.056C419.288 133.188 417.66 127.692 416.235 124.842C414.606 121.992 411.553 118.328 409.314 116.293C406.871 114.461 405.446 112.425 406.057 111.814C406.668 111.204 410.332 110.186 414.199 109.372C419.695 108.557 422.952 109.372 428.448 113.036C432.316 115.682 437.405 121.585 439.441 125.86C441.476 130.338 443.308 137.87 443.512 142.552C443.715 147.437 444.122 151.305 444.733 151.305C445.344 151.305 446.769 150.287 447.787 149.066C449.008 147.844 456.336 147.234 467.125 147.641C480.763 148.252 486.259 149.473 493.384 153.34C498.473 156.19 502.748 159.651 503.155 161.076C503.562 162.297 501.73 163.926 499.287 164.536C496.641 164.943 489.313 168.2 483.002 171.661C476.488 174.918 471.196 178.582 471.196 179.803C471.196 181.025 476.692 181.839 483.409 181.839C490.738 181.839 499.898 183.467 506.412 185.91C512.111 188.149 517.2 189.981 517.607 189.981C517.811 189.981 518.422 187.946 518.829 185.503C519.439 182.45 522.696 179.396 528.6 176.75C533.485 174.511 541.017 172.679 545.495 172.882C551.602 172.882 554.859 171.457 558.726 167.59C561.576 164.74 566.258 161.279 569.515 159.854C572.568 158.43 577.454 157.412 580.711 157.412C583.764 157.412 589.26 159.244 592.924 161.483C596.792 163.926 601.067 169.218 603.509 174.714C605.952 180.21 606.97 185.706 606.359 188.556C605.138 192.22 605.341 192.627 607.784 190.592C609.413 189.167 617.148 186.521 624.883 184.892C632.822 183.264 641.982 181.839 645.239 181.839C648.7 181.839 652.771 182.857 654.399 183.874C657.046 185.503 656.842 185.91 653.992 185.91C651.957 185.91 648.292 187.131 645.85 188.556C643.407 189.778 639.336 193.238 636.893 196.088C634.45 198.938 632.415 201.381 632.618 201.584C632.822 201.788 638.115 200.566 644.221 198.938C650.328 197.309 662.745 196.088 671.702 196.292C685.951 196.495 689.819 195.681 702.236 189.981C712.821 185.096 720.352 183.06 731.752 182.45C740.708 181.839 752.108 182.449 759.232 183.874C767.171 185.706 774.499 188.963 780.199 193.442C784.881 197.106 789.359 199.752 790.377 199.141C791.191 198.531 790.784 194.256 786.916 180.821L802.59 182.042C813.99 182.857 821.318 184.689 840.656 194.46L851.852 190.999C860.198 188.353 866.712 187.742 877.297 188.556C885.236 189.167 896.228 191.61 901.724 193.849C908.848 196.699 917.601 197.92 931.24 198.327C941.825 198.531 958.313 197.513 967.881 196.292C977.448 195.07 992.104 192.831 1000.45 191.61C1008.8 190.388 1016.94 188.76 1018.16 188.149C1019.99 187.335 1019.38 184.892 1015.72 179.396C1012.87 175.121 1009 171.457 1007.17 171.457C1005.13 171.254 989.865 171.05 972.97 170.847C942.737 170.644 942.235 170.441 923.282 162.779L923.098 162.704C912.512 158.429 899.688 153.748 894.599 152.119C889.51 150.694 879.536 149.269 872.208 149.269C862.64 149.269 856.127 150.694 848.798 153.951C843.302 156.597 837.196 160.465 835.567 162.704C833.939 165.147 831.089 167.386 829.46 167.997C827.628 168.404 824.168 166.165 821.318 162.704C818.468 159.447 813.176 155.58 809.715 153.951C806.051 152.526 798.723 151.305 793.43 151.305C787.934 151.305 779.792 153.137 766.357 159.447L757.807 151.712C752.922 147.437 744.576 141.738 738.876 139.091C730.938 135.224 725.441 134.002 714.449 134.002C703.457 134.002 698.164 135.02 691.04 138.684C685.951 141.331 679.03 146.42 675.366 149.88C671.905 153.544 668.648 155.58 668.241 154.358C668.038 153.137 663.967 149.88 659.488 146.827C655.01 143.773 646.46 139.295 640.761 137.056C634.858 134.817 624.68 132.374 618.369 131.763C610.634 131.153 603.102 131.763 596.385 133.799C590.889 135.427 584.782 136.242 583.153 135.427C580.711 134.41 580.507 134.817 582.136 137.056C583.561 139.295 583.561 139.702 581.525 138.684C580.304 137.666 579.082 134.613 579.082 131.56C579.082 128.303 578.065 124.232 576.64 122.4C575.215 120.364 570.329 117.514 565.851 115.886C561.373 114.257 556.894 113.443 555.877 114.257C554.859 115.071 554.859 112.629 555.877 108.557C556.894 104.69 557.505 98.1759 557.505 94.3083C557.505 90.4407 556.894 83.7232 556.08 79.6521C555.266 75.1738 551.602 68.4563 547.531 63.7744C543.663 59.2961 539.999 56.2427 539.388 57.2605C538.778 58.0748 537.963 57.057 537.353 55.2249C536.742 53.1893 535.521 51.968 534.299 52.5786C533.281 53.1893 532.264 52.7822 532.264 51.5608C532.264 50.3395 530.839 49.9324 529.21 50.543C527.582 51.1537 526.157 50.9502 526.157 50.136C526.157 49.1182 524.528 48.3039 522.696 48.1004C520.661 47.8968 514.147 47.4897 508.244 47.0826C502.137 46.6754 496.844 47.0826 496.437 48.1004C496.03 48.9146 493.995 49.5252 492.162 49.5252C490.127 49.5252 483.002 51.968 476.285 54.8178C469.567 57.6676 462.85 60.5175 461.221 61.3317C459.797 62.146 458.779 61.9424 458.982 60.721C459.389 59.4996 458.575 55.8356 457.15 52.5786C455.725 49.3217 452.265 44.0292 449.211 40.7722C446.158 37.7188 440.458 34.2583 436.591 33.0369C432.723 31.8156 426.82 31.4084 423.359 32.0191C420.102 32.8334 413.792 35.8868 409.721 38.9402C405.446 41.9936 402.8 45.2505 403.614 46.0648C404.428 47.0826 403.411 47.2861 401.579 46.6754C399.543 46.0647 397.507 43.8256 396.897 41.9936C396.49 39.958 393.233 35.8868 389.772 32.8334C386.515 29.5765 380.205 25.0982 376.134 22.6554C370.23 19.3985 364.734 18.3807 353.131 18.1771C340.511 17.9736 335.829 18.9914 326.669 23.4697C319.951 26.5231 312.827 32.2227 308.959 37.1081C305.295 41.79 302.242 46.0648 302.242 47.0826C302.242 47.8968 301.02 50.3395 299.392 52.5786C296.542 56.6498 296.338 56.6499 291.657 52.1715C289.01 49.7288 283.718 47.0825 279.85 46.6754C275.372 45.8612 271.097 46.6754 268.654 48.5074C266.415 50.1359 263.769 51.5608 262.548 51.5608C261.53 51.5608 258.273 47.0825 255.423 41.1793C252.573 35.4796 247.077 27.5409 243.006 23.4697C238.935 19.1949 231.607 13.9024 226.721 11.2561Z" fill="white"/>
<path d="M333.776 84.1304C338.254 82.0948 342.936 80.2628 343.954 80.2628C345.175 80.2628 349.043 81.6877 352.503 83.1126C355.964 84.5375 360.646 88.4051 362.885 91.6621C365.124 94.919 367.567 99.8045 368.381 102.654C369.399 105.301 370.62 108.15 371.435 108.761C372.249 109.168 373.674 112.832 374.692 116.496C376.32 122.196 378.152 123.824 387.109 126.674C392.808 128.506 399.933 132.374 403.19 135.224C406.243 137.87 410.314 143.977 412.146 148.455L415.81 156.598C419.271 147.03 420.085 141.127 419.678 137.259C419.271 133.188 417.846 127.692 416.218 125.046C414.793 122.196 411.536 118.328 409.297 116.496C407.057 114.664 405.633 112.629 406.04 112.018C406.65 111.407 410.721 110.186 414.996 109.575C421.51 108.557 424.156 109.372 429.245 113.239C432.706 115.886 437.388 121.585 439.423 126.064C441.663 130.542 443.495 138.074 443.495 142.755C443.698 147.641 444.309 151.509 444.716 151.509C445.327 151.509 446.752 150.491 447.769 149.269C449.194 147.844 456.319 147.437 467.107 147.844C480.746 148.455 486.446 149.676 493.57 153.544C498.456 156.394 502.73 159.651 503.137 161.076C503.544 162.501 501.713 164.129 499.27 164.536C496.827 165.147 489.499 168.404 482.985 171.661C476.471 175.121 471.179 178.785 471.179 180.007C471.179 181.025 476.675 182.042 483.392 182.042C490.72 182.042 500.084 183.671 506.394 186.114C512.298 188.353 517.387 190.185 517.59 190.185C517.794 190.185 518.404 188.149 519.015 185.503C519.626 182.45 522.883 179.6 528.582 176.953C533.468 174.714 540.999 172.882 545.478 172.882C551.585 172.882 555.045 171.661 558.709 167.793C561.559 164.943 566.444 161.483 569.498 160.058C572.551 158.633 577.64 157.615 580.694 157.615C583.747 157.615 589.243 159.447 592.907 161.686C596.775 164.129 601.049 169.422 603.492 174.918C606.138 180.414 607.156 185.91 606.342 188.556C605.324 192.424 605.528 192.831 607.767 190.592C609.395 189.371 617.131 186.724 624.866 185.096C632.805 183.467 641.965 182.042 645.222 182.042C648.682 182.042 652.754 182.857 654.382 184.078C657.028 185.706 657.028 185.91 653.975 186.114C651.939 186.114 648.479 187.131 646.036 188.556C643.593 189.981 639.522 193.442 636.876 196.292C634.433 198.938 632.601 201.584 632.805 201.788C633.008 201.991 638.097 200.77 644.204 199.141C650.514 197.513 662.728 196.292 671.685 196.495C686.137 196.495 689.801 195.884 702.218 189.981C712.804 185.299 720.539 183.264 731.735 182.45C740.691 181.839 752.09 182.653 759.215 184.078C767.154 185.91 774.482 189.167 780.182 193.442C784.864 197.309 789.545 199.752 790.36 199.345C791.174 198.734 790.767 194.256 789.342 189.574L786.899 181.025C813.973 183.06 821.301 184.892 829.443 188.963L840.639 194.663C860.18 188.353 866.694 187.742 877.279 188.76C885.218 189.371 896.21 191.813 901.707 193.849C908.628 196.699 917.788 198.124 930.205 198.327C940.383 198.734 957.685 197.716 968.881 196.292C980.077 194.867 996.158 192.627 1004.5 190.999C1013.05 189.574 1020.18 188.76 1020.38 189.167C1020.59 189.371 1015.7 191.406 1009.19 193.238C1002.67 195.07 987.812 198.734 976.006 201.381C964.403 204.027 944.25 207.691 931.223 209.523C914.531 211.966 899.671 212.78 879.315 211.966C852.038 211.151 850.41 211.355 840.639 216.24C835.143 218.887 825.983 222.551 820.283 223.976C814.787 225.401 805.423 226.825 799.52 226.825C793.617 226.825 784.456 225.401 779.164 223.569C770.004 220.515 769.393 220.515 767.561 223.976C766.543 226.011 762.268 231.304 758.401 235.578C754.33 239.853 748.019 244.332 743.948 245.553C740.081 246.774 732.752 247.589 727.663 247.589C721.557 247.453 714.093 245.078 705.272 240.464L692.04 233.543C656.621 253.695 654.586 254.306 641.151 254.306C630.158 254.102 624.662 253.085 616.927 249.217C611.431 246.367 603.696 240.871 600.032 237.003C596.164 232.932 591.279 226.418 589.039 222.144C585.172 214.612 585.172 214.612 578.658 217.462C574.994 218.887 568.276 220.922 563.798 221.533C559.32 222.347 550.567 221.94 544.053 220.719C537.539 219.701 528.379 216.851 523.697 214.612C519.015 212.373 514.74 210.541 514.537 210.541C514.333 210.541 513.519 213.391 512.705 217.055C512.094 220.719 509.448 227.436 507.005 231.914C504.359 236.393 498.659 242.5 494.384 245.349C490.11 248.403 481.56 252.27 475.25 254.102C469.143 255.934 457.337 257.359 448.787 257.359C440.441 257.156 428.024 255.731 421.307 254.102C414.589 252.27 404.208 247.996 397.897 244.739C391.79 241.278 384.666 236.8 382.223 234.561C377.745 230.897 377.541 230.897 367.974 235.986C359.425 240.668 356.371 241.278 342.936 240.464C334.59 240.057 326.244 239.039 324.209 238.225C321.359 237.207 319.73 238.835 316.881 245.553C314.845 250.438 309.96 257.766 306.296 262.245C302.428 266.52 294.489 273.237 288.586 276.901C282.683 280.769 271.08 286.061 262.53 288.911C251.538 292.575 242.989 294 231.589 294C222.836 294 210.826 292.575 204.516 290.743C198.409 288.911 187.824 284.433 181.107 280.769C174.389 277.105 164.211 269.166 158.511 263.059C152.608 256.952 146.909 248.606 145.28 243.721C142.837 235.986 142.023 235.375 138.359 237.411C136.12 238.428 127.978 239.243 120.039 238.835C108.843 238.225 103.754 236.8 97.6473 232.729C92.5583 229.472 87.8764 223.976 85.0266 218.072C82.5839 212.78 80.3447 205.655 80.3447 202.398C80.3447 198.938 80.1411 196.292 79.9376 196.292C79.734 196.088 76.2736 197.716 72.2023 199.549C67.1133 201.991 61.8208 202.602 52.8642 201.991C46.1467 201.381 36.1724 198.938 30.4727 196.495C24.9766 194.052 17.852 189.574 14.7986 186.521C11.5416 183.467 7.06335 175.936 4.82422 169.829C1.97437 162.501 0.549438 153.341 0.345886 143.366C0.345886 131.763 1.36365 125.86 4.41705 118.939C6.85974 113.85 11.7452 106.725 15.6128 103.265C19.2769 99.8044 25.9944 94.919 30.4727 92.6799C34.951 90.4407 41.4649 87.7944 44.7219 86.9802C49.4037 85.9624 50.4214 86.166 49.4037 87.998C48.5894 89.2193 46.3503 90.4407 44.3147 90.2372C42.2791 90.2372 39.4293 91.6621 37.5973 93.2905C35.9688 95.1226 32.5082 96.9546 30.0656 97.5653C27.6228 98.176 25.3837 99.8045 25.3837 101.636C25.3837 103.265 23.9587 105.301 21.9232 106.115C19.8876 106.929 16.6306 108.965 14.7986 110.593C12.763 112.425 11.1345 115.071 11.1345 116.903C11.1345 118.939 12.763 118.328 16.8342 114.461C19.8876 111.407 25.9944 107.133 30.4727 104.893C34.951 102.654 42.8898 100.212 47.7752 99.3973C53.2713 98.5831 61.6172 99.1938 68.1312 100.619C74.4415 102.044 82.7874 105.301 87.0621 107.947C91.3369 110.593 97.4437 115.682 100.701 119.346C104.161 123.01 107.215 127.692 107.825 129.524C108.843 132.578 109.861 132.781 114.543 130.949C117.596 129.931 122.482 129.321 125.128 129.931C127.978 130.542 132.049 132.985 134.288 135.224L138.359 139.295C144.262 125.86 148.741 118.328 152.405 113.85C156.069 109.372 163.193 103.469 168.079 100.619C175.407 96.7511 179.885 95.7333 192.302 95.7333C205.534 95.9368 209.198 96.7511 218.765 102.044C225.075 105.504 233.828 112.222 238.714 117.107C243.396 121.992 248.485 127.896 250.113 130.135C251.742 132.374 254.999 139.702 257.441 146.42C259.884 153.341 261.513 162.501 261.309 167.793L260.902 176.953C241.767 167.997 238.103 167.386 226.907 168.2C219.172 169.015 210.623 171.05 206.144 173.696C201.87 175.936 198.409 178.378 198.409 178.989C198.409 179.396 203.702 179.396 210.216 178.582C216.933 177.971 226.297 178.378 231.996 179.803C238.103 181.228 246.449 185.299 252.352 189.981L262.53 197.717C273.726 185.707 280.036 181.228 283.904 180.007C287.975 178.989 294.489 177.971 298.764 177.971H306.296C301.41 166.368 301.207 162.297 302.428 155.58C303.446 149.88 306.499 144.18 309.756 140.72C314.641 135.631 315.659 132.985 316.27 121.382C316.677 112.832 318.509 103.876 321.359 97.7689C324.616 90.4407 327.669 87.1838 333.776 84.1304Z" fill="#FFC3C2"/>
<path d="M960.739 171.254C955.243 170.847 959.314 170.44 969.899 170.44C980.688 170.44 985.166 170.847 980.077 171.254C975.192 171.661 966.438 171.661 960.739 171.254Z" fill="#FFC3C2"/>
</svg>
