<svg width="856" height="183" viewBox="0 0 856 183" fill="none" xmlns="http://www.w3.org/2000/svg">
<path d="M628.667 11.2561C633.552 8.8134 642.102 5.35288 647.801 3.92796C653.297 2.29949 664.9 0.874573 673.246 0.874573C681.796 0.874573 694.009 2.2995 700.727 4.13153C707.444 5.96357 716.604 10.0347 721.083 12.8846C725.561 15.938 732.482 22.0447 736.349 26.3195C740.421 30.7978 745.917 38.7366 748.563 44.0292C752.838 52.3751 754.263 53.8 757.723 52.5786C759.962 51.7644 765.051 50.543 768.919 49.7288C772.787 48.9146 778.69 48.9146 782.15 49.7288C785.407 50.543 791.31 54.2071 794.771 57.464C798.435 60.9245 802.303 67.2349 803.524 71.5097C804.542 75.5809 805.56 81.077 805.56 83.7232C805.56 86.166 807.188 88.8122 809.02 89.4229C811.056 90.0336 814.109 91.4585 815.738 92.4763C817.366 93.4941 821.234 95.3261 824.287 96.3439C827.544 97.5652 829.987 99.8044 829.987 101.433C829.987 103.061 831.615 105.097 833.447 105.911C835.483 106.725 838.74 108.761 840.775 110.593C842.607 112.222 844.236 115.071 844.236 116.7C844.236 118.735 842.607 118.125 838.74 114.257C835.483 111.407 829.376 107.133 824.898 104.893C820.419 102.451 812.684 100.008 807.595 99.3973C802.099 98.3795 793.753 98.9902 787.239 100.415C781.133 101.84 772.583 105.301 768.308 107.947C764.237 110.39 758.13 115.682 754.67 119.346C751.413 122.807 748.156 127.489 747.545 129.524C746.731 132.374 745.713 132.577 740.828 130.949C737.774 129.728 733.093 129.117 730.243 129.728C727.393 130.338 723.322 132.781 717.011 139.091L713.347 130.542C711.312 125.656 706.63 118.125 702.966 113.646C699.302 109.168 692.381 103.265 687.292 100.619C679.964 96.5475 675.485 95.5297 663.068 95.7332C649.837 95.7332 646.173 96.5475 636.605 101.84C630.499 105.301 621.542 112.222 616.86 116.903C612.178 121.789 606.886 127.692 605.257 129.931C603.629 132.17 600.372 139.498 598.133 146.216C595.69 153.137 593.858 162.297 594.672 176.75L604.85 171.864C613.603 167.793 617.267 167.183 628.463 168.2C636.198 168.811 644.748 171.05 649.226 173.493C653.501 175.936 656.961 178.175 656.961 178.785C656.961 179.396 651.669 179.193 645.155 178.582C638.641 177.768 629.277 178.175 623.374 179.6C617.471 181.025 608.921 185.096 592.84 197.716L585.716 189.778C581.848 185.503 575.334 181.025 571.466 180.007C567.599 178.785 560.881 177.768 549.075 177.768L551.925 171.254C553.96 166.368 554.367 162.094 552.943 155.376C551.925 149.88 549.075 143.977 545.614 140.516C540.729 135.631 539.915 132.781 539.304 121.178C538.897 112.832 536.861 103.876 534.215 97.7688C530.551 89.83 527.905 87.1837 520.984 83.9268C514.063 80.8734 511.009 80.4663 505.31 82.0947C501.238 83.3161 496.149 86.9802 493.3 90.8478C490.653 94.3083 487.804 99.6008 486.989 102.451C486.175 105.3 484.75 107.947 484.139 108.557C483.325 109.168 481.9 112.629 480.679 116.293C479.051 122.196 477.422 123.621 468.465 126.471C462.562 128.303 455.438 132.17 452.384 135.02C449.331 137.87 445.26 143.773 439.764 156.394L437.321 150.287C436.099 147.03 435.489 140.923 435.692 137.056C436.099 133.188 437.728 127.692 439.153 124.842C440.781 121.992 443.835 118.328 446.074 116.293C448.517 114.461 449.941 112.425 449.331 111.814C448.72 111.204 445.056 110.186 441.188 109.372C435.692 108.557 432.435 109.372 426.939 113.036C423.072 115.682 417.983 121.585 415.947 125.86C413.911 130.338 412.079 137.87 411.876 142.552C411.672 147.437 411.265 151.305 410.655 151.305C410.044 151.305 408.619 150.287 407.601 149.066C406.38 147.844 399.052 147.234 388.263 147.641C374.625 148.252 369.128 149.473 362.004 153.34C356.915 156.19 352.64 159.651 352.233 161.076C351.826 162.297 353.658 163.926 356.101 164.536C358.747 164.943 366.075 168.2 372.385 171.661C378.899 174.918 384.192 178.582 384.192 179.803C384.192 181.025 378.696 181.839 371.978 181.839C364.65 181.839 355.49 183.467 348.976 185.91C343.276 188.149 338.187 189.981 337.78 189.981C337.577 189.981 336.966 187.946 336.559 185.503C335.948 182.45 332.691 179.396 326.788 176.75C321.903 174.511 314.371 172.679 309.893 172.882C303.786 172.882 300.529 171.457 296.661 167.59C293.811 164.74 289.13 161.279 285.873 159.854C282.819 158.43 277.934 157.412 274.677 157.412C271.624 157.412 266.127 159.244 262.463 161.483C258.596 163.926 254.321 169.218 251.878 174.714C249.436 180.21 248.418 185.706 249.028 188.556C250.25 192.22 250.046 192.627 247.604 190.592C245.975 189.167 238.24 186.521 230.505 184.892C222.566 183.264 213.406 181.839 210.149 181.839C206.688 181.839 202.617 182.857 200.988 183.874C198.342 185.503 198.546 185.91 201.396 185.91C203.431 185.91 207.095 187.131 209.538 188.556C211.981 189.778 216.052 193.238 218.495 196.088C220.937 198.938 222.973 201.381 222.769 201.584C222.566 201.788 217.273 200.566 211.166 198.938C205.06 197.309 192.643 196.088 183.686 196.292C169.437 196.495 165.569 195.681 153.152 189.981C142.567 185.096 135.035 183.06 123.636 182.45C114.679 181.839 103.28 182.449 96.1554 183.874C88.2166 185.706 80.8884 188.963 75.1888 193.442C70.5069 197.106 66.0286 199.752 65.0108 199.141C64.1966 198.531 64.6037 194.256 68.4713 180.821L52.7973 182.042C41.3979 182.857 34.0698 184.689 14.7317 194.46L3.53589 190.999C-4.81004 188.353 -11.3239 187.742 -21.909 188.556C-29.8478 189.167 -40.84 191.61 -46.3361 193.849C-53.4607 196.699 -62.2138 197.92 -75.8522 198.327C-86.4373 198.531 -102.926 197.513 -112.493 196.292C-122.06 195.07 -136.716 192.831 -145.062 191.61C-153.408 190.388 -161.551 188.76 -162.772 188.149C-164.604 187.335 -163.993 184.892 -160.329 179.396C-157.48 175.121 -153.612 171.457 -151.78 171.457C-149.744 171.254 -134.477 171.05 -117.582 170.847C-87.3493 170.644 -86.8474 170.441 -67.8942 162.779L-67.7099 162.704C-57.1248 158.429 -44.3005 153.748 -39.2116 152.119C-34.1226 150.694 -24.1482 149.269 -16.82 149.269C-7.25276 149.269 -0.738861 150.694 6.58928 153.951C12.0854 156.597 18.1922 160.465 19.8206 162.704C21.4491 165.147 24.2989 167.386 25.9274 167.997C27.7594 168.404 31.22 166.165 34.0698 162.704C36.9196 159.447 42.2122 155.58 45.6727 153.951C49.3367 152.526 56.6649 151.305 61.9574 151.305C67.4535 151.305 75.5959 153.137 89.0308 159.447L97.5803 151.712C102.466 147.437 110.812 141.738 116.511 139.091C124.45 135.224 129.946 134.002 140.938 134.002C151.931 134.002 157.223 135.02 164.348 138.684C169.437 141.331 176.358 146.42 180.022 149.88C183.482 153.544 186.739 155.58 187.146 154.358C187.35 153.137 191.421 149.88 195.899 146.827C200.378 143.773 208.927 139.295 214.627 137.056C220.53 134.817 230.708 132.374 237.018 131.763C244.754 131.153 252.285 131.763 259.003 133.799C264.499 135.427 270.606 136.242 272.234 135.427C274.677 134.41 274.88 134.817 273.252 137.056C271.827 139.295 271.827 139.702 273.863 138.684C275.084 137.666 276.305 134.613 276.305 131.56C276.305 128.303 277.323 124.232 278.748 122.4C280.173 120.364 285.058 117.514 289.537 115.886C294.015 114.257 298.493 113.443 299.511 114.257C300.529 115.071 300.529 112.629 299.511 108.557C298.493 104.69 297.883 98.1759 297.883 94.3083C297.883 90.4407 298.493 83.7232 299.308 79.6521C300.122 75.1738 303.786 68.4563 307.857 63.7744C311.725 59.2961 315.389 56.2427 315.999 57.2605C316.61 58.0748 317.424 57.057 318.035 55.2249C318.646 53.1893 319.867 51.968 321.088 52.5786C322.106 53.1893 323.124 52.7822 323.124 51.5608C323.124 50.3395 324.549 49.9324 326.177 50.543C327.806 51.1537 329.231 50.9502 329.231 50.136C329.231 49.1182 330.859 48.3039 332.691 48.1004C334.727 47.8968 341.241 47.4897 347.144 47.0826C353.251 46.6754 358.543 47.0826 358.951 48.1004C359.358 48.9146 361.393 49.5252 363.225 49.5252C365.261 49.5252 372.385 51.968 379.103 54.8178C385.82 57.6676 392.538 60.5175 394.166 61.3317C395.591 62.146 396.609 61.9424 396.405 60.721C395.998 59.4996 396.813 55.8356 398.237 52.5786C399.662 49.3217 403.123 44.0292 406.176 40.7722C409.23 37.7188 414.929 34.2583 418.797 33.0369C422.665 31.8156 428.568 31.4084 432.028 32.0191C435.285 32.8334 441.596 35.8868 445.667 38.9402C449.942 41.9936 452.588 45.2505 451.774 46.0648C450.959 47.0826 451.977 47.2861 453.809 46.6754C455.845 46.0647 457.88 43.8256 458.491 41.9936C458.898 39.958 462.155 35.8868 465.616 32.8334C468.872 29.5765 475.183 25.0982 479.254 22.6554C485.157 19.3985 490.653 18.3807 502.256 18.1771C514.877 17.9736 519.559 18.9914 528.719 23.4697C535.436 26.5231 542.561 32.2227 546.429 37.1081C550.093 41.79 553.146 46.0648 553.146 47.0826C553.146 47.8968 554.367 50.3395 555.996 52.5786C558.846 56.6498 559.049 56.6499 563.731 52.1715C566.377 49.7288 571.67 47.0825 575.538 46.6754C580.016 45.8612 584.291 46.6754 586.733 48.5074C588.972 50.1359 591.619 51.5608 592.84 51.5608C593.858 51.5608 597.115 47.0825 599.965 41.1793C602.815 35.4796 608.311 27.5409 612.382 23.4697C616.453 19.1949 623.781 13.9024 628.667 11.2561Z" fill="white"/>
<path d="M521.612 84.1304C517.133 82.0948 512.452 80.2628 511.434 80.2628C510.212 80.2628 506.345 81.6877 502.884 83.1126C499.424 84.5375 494.742 88.4051 492.503 91.6621C490.264 94.919 487.821 99.8045 487.007 102.654C485.989 105.301 484.768 108.15 483.953 108.761C483.139 109.168 481.714 112.832 480.696 116.496C479.068 122.196 477.236 123.824 468.279 126.674C462.58 128.506 455.455 132.374 452.198 135.224C449.145 137.87 445.073 143.977 443.241 148.455L439.577 156.598C436.117 147.03 435.303 141.127 435.71 137.259C436.117 133.188 437.542 127.692 439.17 125.046C440.595 122.196 443.852 118.328 446.091 116.496C448.33 114.664 449.755 112.629 449.348 112.018C448.737 111.407 444.666 110.186 440.392 109.575C433.878 108.557 431.231 109.372 426.142 113.239C422.682 115.886 418 121.585 415.964 126.064C413.725 130.542 411.893 138.074 411.893 142.755C411.69 147.641 411.079 151.509 410.672 151.509C410.061 151.509 408.636 150.491 407.619 149.269C406.194 147.844 399.069 147.437 388.28 147.844C374.642 148.455 368.942 149.676 361.818 153.544C356.932 156.394 352.658 159.651 352.25 161.076C351.843 162.501 353.675 164.129 356.118 164.536C358.561 165.147 365.889 168.404 372.403 171.661C378.917 175.121 384.209 178.785 384.209 180.007C384.209 181.025 378.713 182.042 371.996 182.042C364.667 182.042 355.304 183.671 348.993 186.114C343.09 188.353 338.001 190.185 337.798 190.185C337.594 190.185 336.983 188.149 336.373 185.503C335.762 182.45 332.505 179.6 326.805 176.953C321.92 174.714 314.388 172.882 309.91 172.882C303.803 172.882 300.343 171.661 296.679 167.793C293.829 164.943 288.943 161.483 285.89 160.058C282.837 158.633 277.748 157.615 274.694 157.615C271.641 157.615 266.145 159.447 262.481 161.686C258.613 164.129 254.338 169.422 251.896 174.918C249.249 180.414 248.232 185.91 249.046 188.556C250.064 192.424 249.86 192.831 247.621 190.592C245.992 189.371 238.257 186.724 230.522 185.096C222.583 183.467 213.423 182.042 210.166 182.042C206.705 182.042 202.634 182.857 201.006 184.078C198.36 185.706 198.36 185.91 201.413 186.114C203.449 186.114 206.909 187.131 209.352 188.556C211.794 189.981 215.866 193.442 218.512 196.292C220.955 198.938 222.787 201.584 222.583 201.788C222.38 201.991 217.291 200.77 211.184 199.141C204.873 197.513 192.66 196.292 183.703 196.495C169.251 196.495 165.586 195.884 153.169 189.981C142.584 185.299 134.849 183.264 123.653 182.45C114.697 181.839 103.297 182.653 96.1727 184.078C88.2339 185.91 80.9058 189.167 75.2061 193.442C70.5243 197.309 65.8424 199.752 65.0282 199.345C64.2139 198.734 64.621 194.256 66.046 189.574L68.4887 181.025C41.4153 183.06 34.0872 184.892 25.9448 188.963L14.749 194.663C-4.79266 188.353 -11.3066 187.742 -21.8916 188.76C-29.8305 189.371 -40.8227 191.813 -46.3188 193.849C-53.2398 196.699 -62.4 198.124 -74.8171 198.327C-84.995 198.734 -102.298 197.716 -113.493 196.292C-124.689 194.867 -140.77 192.627 -149.116 190.999C-157.666 189.574 -164.79 188.76 -164.994 189.167C-165.197 189.371 -160.312 191.406 -153.798 193.238C-147.284 195.07 -132.424 198.734 -120.618 201.381C-109.015 204.027 -88.8627 207.691 -75.8349 209.523C-59.143 211.966 -44.2832 212.78 -23.9272 211.966C3.3497 211.151 4.97818 211.355 14.749 216.24C20.2451 218.887 29.4053 222.551 35.105 223.976C40.6011 225.401 49.9648 226.825 55.868 226.825C61.7712 226.825 70.9314 225.401 76.2239 223.569C85.3841 220.515 85.9948 220.515 87.8268 223.976C88.8446 226.011 93.1194 231.304 96.987 235.578C101.058 239.853 107.368 244.332 111.44 245.553C115.307 246.774 122.635 247.589 127.724 247.589C133.831 247.453 141.295 245.078 150.116 240.464L163.347 233.543C198.767 253.695 200.802 254.306 214.237 254.306C225.229 254.102 230.725 253.085 238.461 249.217C243.957 246.367 251.692 240.871 255.356 237.003C259.224 232.932 264.109 226.418 266.348 222.144C270.216 214.612 270.216 214.612 276.73 217.462C280.394 218.887 287.111 220.922 291.59 221.533C296.068 222.347 304.821 221.94 311.335 220.719C317.849 219.701 327.009 216.851 331.691 214.612C336.373 212.373 340.648 210.541 340.851 210.541C341.055 210.541 341.869 213.391 342.683 217.055C343.294 220.719 345.94 227.436 348.383 231.914C351.029 236.393 356.729 242.5 361.003 245.349C365.278 248.403 373.828 252.27 380.138 254.102C386.245 255.934 398.051 257.359 406.601 257.359C414.947 257.156 427.364 255.731 434.081 254.102C440.799 252.27 451.18 247.996 457.491 244.739C463.597 241.278 470.722 236.8 473.165 234.561C477.643 230.897 477.846 230.897 487.414 235.986C495.963 240.668 499.017 241.278 512.452 240.464C520.797 240.057 529.143 239.039 531.179 238.225C534.029 237.207 535.657 238.835 538.507 245.553C540.543 250.438 545.428 257.766 549.092 262.245C552.96 266.52 560.899 273.237 566.802 276.901C572.705 280.769 584.308 286.061 592.857 288.911C603.85 292.575 612.399 294 623.799 294C632.552 294 644.562 292.575 650.872 290.743C656.979 288.911 667.564 284.433 674.281 280.769C680.999 277.105 691.177 269.166 696.876 263.059C702.78 256.952 708.479 248.606 710.108 243.721C712.55 235.986 713.365 235.375 717.029 237.411C719.268 238.428 727.41 239.243 735.349 238.835C746.545 238.225 751.634 236.8 757.741 232.729C762.83 229.472 767.511 223.976 770.361 218.072C772.804 212.78 775.043 205.655 775.043 202.398C775.043 198.938 775.247 196.292 775.45 196.292C775.654 196.088 779.114 197.716 783.185 199.549C788.274 201.991 793.567 202.602 802.524 201.991C809.241 201.381 819.215 198.938 824.915 196.495C830.411 194.052 837.536 189.574 840.589 186.521C843.846 183.467 848.324 175.936 850.564 169.829C853.413 162.501 854.838 153.341 855.042 143.366C855.042 131.763 854.024 125.86 850.971 118.939C848.528 113.85 843.643 106.725 839.775 103.265C836.111 99.8044 829.393 94.919 824.915 92.6799C820.437 90.4407 813.923 87.7944 810.666 86.9802C805.984 85.9624 804.966 86.166 805.984 87.998C806.798 89.2193 809.038 90.4407 811.073 90.2372C813.109 90.2372 815.958 91.6621 817.791 93.2905C819.419 95.1226 822.88 96.9546 825.322 97.5653C827.765 98.176 830.004 99.8045 830.004 101.636C830.004 103.265 831.429 105.301 833.465 106.115C835.5 106.929 838.757 108.965 840.589 110.593C842.625 112.425 844.253 115.071 844.253 116.903C844.253 118.939 842.625 118.328 838.554 114.461C835.5 111.407 829.393 107.133 824.915 104.893C820.437 102.654 812.498 100.212 807.613 99.3973C802.117 98.5831 793.771 99.1938 787.257 100.619C780.946 102.044 772.6 105.301 768.326 107.947C764.051 110.593 757.944 115.682 754.687 119.346C751.227 123.01 748.173 127.692 747.563 129.524C746.545 132.578 745.527 132.781 740.845 130.949C737.792 129.931 732.906 129.321 730.26 129.931C727.41 130.542 723.339 132.985 721.1 135.224L717.029 139.295C711.125 125.86 706.647 118.328 702.983 113.85C699.319 109.372 692.194 103.469 687.309 100.619C679.981 96.7511 675.503 95.7333 663.085 95.7333C649.854 95.9368 646.19 96.7511 636.623 102.044C630.312 105.504 621.559 112.222 616.674 117.107C611.992 121.992 606.903 127.896 605.275 130.135C603.646 132.374 600.389 139.702 597.946 146.42C595.504 153.341 593.875 162.501 594.079 167.793L594.486 176.953C613.621 167.997 617.285 167.386 628.48 168.2C636.216 169.015 644.765 171.05 649.243 173.696C653.518 175.936 656.979 178.378 656.979 178.989C656.979 179.396 651.686 179.396 645.172 178.582C638.455 177.971 629.091 178.378 623.391 179.803C617.285 181.228 608.939 185.299 603.035 189.981L592.857 197.717C581.662 185.707 575.351 181.228 571.484 180.007C567.413 178.989 560.899 177.971 556.624 177.971H549.092C553.978 166.368 554.181 162.297 552.96 155.58C551.942 149.88 548.889 144.18 545.632 140.72C540.746 135.631 539.729 132.985 539.118 121.382C538.711 112.832 536.879 103.876 534.029 97.7689C530.772 90.4407 527.719 87.1838 521.612 84.1304Z" fill="#FFC3C2"/>
<path d="M-105.351 171.254C-99.8549 170.847 -103.926 170.44 -114.511 170.44C-125.3 170.44 -129.778 170.847 -124.689 171.254C-119.804 171.661 -111.051 171.661 -105.351 171.254Z" fill="#FFC3C2"/>
</svg>
