<svg width="72" height="60" viewBox="0 0 72 60" fill="none" xmlns="http://www.w3.org/2000/svg">
<path d="M63.8583 22.5189C62.2461 22.5189 62.0815 21.105 62.0793 21.0903V7.73001C62.0793 5.6999 63.451 5.42979 63.4658 5.42767L69.8769 3.10635C70.0799 3.03304 70.2941 2.99521 70.51 2.99451C71.1431 2.99451 71.8352 3.3216 71.9175 4.04965C72.0526 5.24197 71.2021 5.6577 71.1937 5.66192L64.9979 7.91782V11.6509C65.3841 11.5011 66.6123 11.0178 66.9921 10.9039C67.178 10.8352 67.3743 10.7988 67.5724 10.7963C68.4862 10.7963 68.8766 11.6404 68.8914 11.6763C68.9061 11.7121 69.267 13.1197 68.0473 13.527C67.5661 13.738 65.5149 14.4998 65.1456 14.6349V19.0517L70.0858 17.2263C70.2149 17.1999 70.3465 17.1871 70.4783 17.1883C70.8898 17.1883 71.6137 17.3086 71.8458 18.1105C72.1539 19.1657 71.4765 19.8114 70.8054 20.0351C70.1723 20.2778 69.172 20.6387 68.1211 21.0227C66.4962 21.6136 64.8164 22.2256 64.1939 22.4894H64.1812H64.1685C64.0662 22.5002 63.9634 22.5058 63.8604 22.5063L63.8583 22.5189Z" fill="#FB5352"/>
<path d="M71.7636 18.1422C71.4407 17.03 70.1133 17.3128 70.1133 17.3128L65.0655 19.1699V14.5758C65.0655 14.5758 67.4881 13.6726 68.0199 13.4447C69.1785 13.0585 68.8155 11.7079 68.8155 11.7079C68.8155 11.7079 68.2858 10.5282 67.0176 10.9798C66.5723 11.1212 64.9073 11.7691 64.9073 11.7691V7.85449L71.1516 5.5817C71.1516 5.5817 71.9577 5.20185 71.829 4.05596C71.7298 3.1823 70.6705 2.8953 69.8939 3.18019L63.4701 5.51417C63.4701 5.51417 62.1533 5.75264 62.1533 7.7342V21.0839C62.1533 21.0839 62.3116 22.6054 64.1497 22.4197C65.1774 21.9829 69.1342 20.5838 70.7675 19.9634C71.4133 19.7587 72.0569 19.1551 71.7636 18.1422Z" fill="#FB5352"/>
<path d="M46.9086 45.4578C46.5921 45.4578 46.4106 45.2468 46.4106 44.8944V38.1182C46.3946 37.9335 46.4359 37.7484 46.5287 37.5879C46.6216 37.4275 46.7616 37.2995 46.9297 37.2213L50.992 35.7589H51.0068C51.0976 35.7615 51.1869 35.783 51.269 35.8219C51.351 35.8608 51.4242 35.9164 51.4837 35.985C51.5432 36.0536 51.5878 36.1339 51.6147 36.2206C51.6416 36.3074 51.6502 36.3988 51.6399 36.4891C51.6538 36.6884 51.6022 36.8869 51.4928 37.0541C51.3835 37.2214 51.2224 37.3483 51.0342 37.4155L47.7949 38.6057V40.353L49.8567 39.6672C49.909 39.653 49.9629 39.6459 50.0171 39.6461C50.1648 39.6461 50.5088 39.7052 50.5088 40.2475C50.5088 41.0304 49.9052 41.1634 49.901 41.1634L47.7907 41.8914V43.4636L50.9941 42.3388H51.011C51.1757 42.3452 51.3317 42.4144 51.447 42.5321C51.5624 42.6498 51.6284 42.8071 51.6315 42.9719C51.6315 43.7886 51.0553 43.9996 51.0321 44.008L47.1851 45.4029C47.0964 45.4357 47.0031 45.4542 46.9086 45.4578Z" fill="#FB5352"/>
<path d="M46.9593 37.3058L51.0068 35.8497C51.0068 35.8497 51.5513 35.8497 51.5513 36.4955C51.5661 36.6765 51.5207 36.8573 51.4223 37.0099C51.3239 37.1626 51.1778 37.2784 51.0068 37.3396L47.7063 38.553V40.4755L49.8778 39.7538C49.8778 39.7538 50.418 39.5976 50.418 40.2539C50.418 40.9756 49.8778 41.098 49.8778 41.098L47.7063 41.8493V43.6008L51.0068 42.4381C51.0068 42.4381 51.5513 42.4824 51.5513 42.991C51.5513 43.757 51.0068 43.9469 51.0068 43.9469L47.1598 45.3418C47.1598 45.3418 46.4971 45.5866 46.4971 44.905V38.1183C46.483 37.952 46.5195 37.7854 46.6021 37.6403C46.6846 37.4953 46.8091 37.3786 46.9593 37.3058Z" fill="#FB5352"/>
<path d="M53.5348 43.0374C53.2141 43.0374 53.0326 42.8263 53.0326 42.4718V35.6999C53.0162 35.5149 53.0575 35.3293 53.1508 35.1687C53.2441 35.0081 53.3849 34.8803 53.5538 34.803L57.6182 33.3406H57.633C57.633 33.3406 58.2661 33.3406 58.2661 34.0707C58.28 34.2701 58.2286 34.4685 58.1197 34.636C58.0108 34.8035 57.8503 34.931 57.6626 34.9993L54.4233 36.1853V37.9368L56.1748 37.2932C56.2277 37.2785 56.2824 37.2714 56.3373 37.2721C56.485 37.2721 56.829 37.3311 56.829 37.8756C56.829 38.6522 56.2276 38.7872 56.2212 38.7894L54.4233 39.4815V41.0516L57.6288 39.9141H57.6478C57.8132 39.9232 57.969 39.9947 58.0838 40.1141C58.1985 40.2336 58.2637 40.3921 58.2661 40.5578C58.2661 41.3681 57.6942 41.5876 57.6689 41.596L53.8197 42.9909C53.7279 43.0217 53.6317 43.0374 53.5348 43.0374Z" fill="#FB5352"/>
<path d="M53.5814 34.8831L57.6311 33.4249C57.6311 33.4249 58.1713 33.4249 58.1713 34.0707C58.1856 34.251 58.1406 34.4312 58.0431 34.5836C57.9456 34.736 57.8009 34.8523 57.6311 34.9148L54.32 36.1282V38.0591L56.1855 37.3733C56.1855 37.3733 56.7257 37.215 56.7257 37.8755C56.7257 38.593 56.1855 38.707 56.1855 38.707L54.32 39.4245V41.1718L57.6226 40.0006C57.6226 40.0006 58.1628 40.0512 58.1628 40.5619C58.1628 41.3237 57.6226 41.5221 57.6226 41.5221L53.7734 42.917C53.7734 42.917 53.1066 43.1555 53.1066 42.4781V35.6998C53.092 35.5314 53.1298 35.3625 53.2147 35.2163C53.2997 35.0702 53.4278 34.9538 53.5814 34.8831Z" fill="#FB5352"/>
<path d="M13.5575 57.7588C13.5065 57.7606 13.4556 57.7516 13.4084 57.7323C13.3611 57.713 13.3184 57.6839 13.2832 57.6469C13.1959 57.5369 13.1517 57.3989 13.1587 57.2586V50.1934C13.1587 49.67 13.6884 49.4674 13.7116 49.459L17.4341 48.1126C17.475 48.1034 17.5168 48.0991 17.5586 48.1C17.6916 48.1 18.1242 48.1464 18.1242 48.733C18.1283 48.9386 18.07 49.1406 17.957 49.3124C17.844 49.4842 17.6815 49.6177 17.4911 49.6953L14.5367 50.7695V52.6202L16.2882 51.9449C16.3128 51.9416 16.3376 51.9416 16.3621 51.9449C16.4845 51.9449 16.8876 51.9934 16.9572 52.6054C16.9795 52.8018 16.9303 52.9997 16.8187 53.1628C16.7071 53.3259 16.5406 53.4434 16.3494 53.4939L14.5367 54.1481V55.7709L17.4405 54.741C17.4735 54.7378 17.5067 54.7378 17.5397 54.741C17.6087 54.74 17.6773 54.7527 17.7415 54.7785C17.8056 54.8042 17.864 54.8424 17.9132 54.8909C17.9798 54.9675 18.0305 55.0565 18.0624 55.1529C18.0942 55.2493 18.1067 55.351 18.0989 55.4522C18.0989 56.2963 17.4658 56.4019 17.4531 56.4019C17.4405 56.4019 14.3468 57.533 13.7918 57.7334C13.7156 57.7545 13.6365 57.7631 13.5575 57.7588Z" fill="#FB5352"/>
<path d="M13.7411 49.5392L17.4636 48.1928C17.4636 48.1928 18.0397 48.0789 18.0397 48.731C18.045 48.9192 17.9926 49.1045 17.8896 49.2621C17.7867 49.4198 17.638 49.5422 17.4636 49.6131L14.4353 50.7083L14.4459 52.7405L16.3114 52.0209C16.3114 52.0209 16.7925 51.947 16.8664 52.6033C16.8874 52.7797 16.8438 52.9576 16.7437 53.1043C16.6436 53.2509 16.4938 53.3564 16.3219 53.401L14.4459 54.0784V55.8806L17.4636 54.8107C17.662 54.7812 18.0102 54.8614 18.0102 55.4311C18.0102 56.2162 17.4362 56.2985 17.4362 56.2985C17.4362 56.2985 14.315 57.4338 13.7579 57.6343C13.6994 57.6678 13.6326 57.684 13.5653 57.6809C13.4979 57.6778 13.4329 57.6555 13.3777 57.6168C13.3226 57.578 13.2796 57.5243 13.2539 57.462C13.2282 57.3997 13.2207 57.3314 13.2325 57.265V50.1955C13.243 49.7249 13.7411 49.5392 13.7411 49.5392Z" fill="#FB5352"/>
<path d="M20.5553 55.3614C20.3851 55.3655 20.22 55.3033 20.0948 55.188C19.9696 55.0726 19.8941 54.9131 19.8843 54.7431V48.0092C19.8944 47.809 19.9646 47.6165 20.0858 47.4568C20.2071 47.2972 20.3736 47.1779 20.5638 47.1144C20.6678 47.0759 20.7778 47.0559 20.8888 47.0553C21.0735 47.0545 21.254 47.1105 21.4058 47.2157L24.835 51.0712L24.8456 46.0234C24.8431 45.9243 24.8612 45.8257 24.8987 45.734C24.9362 45.6422 24.9923 45.5592 25.0635 45.4902C25.1346 45.4212 25.2193 45.3677 25.3122 45.3331C25.4051 45.2984 25.5042 45.2834 25.6032 45.289C25.6931 45.2817 25.7836 45.2931 25.8689 45.3226C25.9542 45.3521 26.0325 45.399 26.0988 45.4603C26.165 45.5216 26.2178 45.596 26.2538 45.6787C26.2899 45.7615 26.3083 45.8508 26.308 45.9411V52.9662C26.276 53.0949 26.2099 53.2126 26.1167 53.3069C26.0235 53.4012 25.9066 53.4687 25.7783 53.5023C25.6662 53.5445 25.5478 53.5673 25.428 53.5698C25.3379 53.5762 25.2477 53.5587 25.1666 53.519C25.0854 53.4794 25.0162 53.419 24.9659 53.344L21.3404 49.3028V54.6798C21.332 54.8537 21.2602 55.0185 21.1384 55.143C21.0167 55.2674 20.8535 55.3429 20.6799 55.3551C20.6385 55.3597 20.5969 55.3618 20.5553 55.3614Z" fill="#FB5352"/>
<path d="M19.9707 48.0092C19.9804 47.825 20.0463 47.6483 20.1595 47.5026C20.2727 47.357 20.4277 47.2495 20.6038 47.1946C20.7288 47.1482 20.8629 47.132 20.9953 47.1474C21.1278 47.1628 21.2546 47.2094 21.3656 47.2833L24.932 51.2928L24.9447 46.0171C24.9437 45.9295 24.9607 45.8426 24.9944 45.7618C25.0282 45.681 25.0782 45.6079 25.1412 45.547C25.2042 45.4862 25.279 45.4388 25.361 45.4079C25.4429 45.377 25.5303 45.3631 25.6179 45.3671C25.6965 45.3607 25.7756 45.3706 25.8503 45.3962C25.925 45.4218 25.9935 45.4625 26.0518 45.5157C26.11 45.569 26.1566 45.6337 26.1887 45.7058C26.2208 45.7779 26.2377 45.8559 26.2383 45.9348V52.9599C26.2053 53.0705 26.1442 53.1706 26.061 53.2505C25.9778 53.3304 25.8753 53.3874 25.7635 53.4158C25.2253 53.6078 25.0544 53.2955 25.0544 53.2955L21.2559 49.0749V54.6735C21.2465 54.8267 21.1819 54.9712 21.074 55.0803C20.9661 55.1894 20.8223 55.2555 20.6692 55.2665C20.5876 55.2829 20.5034 55.2817 20.4223 55.263C20.3412 55.2442 20.2651 55.2084 20.199 55.1579C20.1328 55.1073 20.0783 55.0432 20.0389 54.9699C19.9995 54.8965 19.9763 54.8156 19.9707 54.7326V48.0092Z" fill="#FB5352"/>
<path d="M39.2145 48.3658C39.1085 48.3708 39.0033 48.3442 38.9124 48.2894C38.8214 48.2345 38.7489 48.1539 38.7038 48.0577C38.6598 47.9645 38.6354 47.8632 38.6321 47.7602V40.8785C38.659 40.7169 38.7257 40.5645 38.8263 40.4352C38.9269 40.3059 39.0582 40.2036 39.2082 40.1378C39.294 40.106 39.3847 40.0896 39.4762 40.0893C39.7026 40.0964 39.9193 40.1831 40.0882 40.3341L43.5828 44.293L43.5955 39.1354C43.5802 38.93 43.6457 38.7267 43.7782 38.569C43.9107 38.4113 44.0996 38.3116 44.3045 38.2913C44.3554 38.2819 44.4069 38.277 44.4586 38.2765C44.5326 38.2737 44.6063 38.2861 44.6753 38.313C44.7443 38.3398 44.807 38.3806 44.8596 38.4327C44.9774 38.5837 45.0392 38.7709 45.0347 38.9624V45.6182C45.0347 45.6457 45.0347 46.2935 44.5029 46.4835C44.3896 46.5266 44.2696 46.5494 44.1484 46.551C44.015 46.5506 43.8834 46.5193 43.7641 46.4596C43.6447 46.4 43.5408 46.3135 43.4604 46.207L40.0671 42.514V47.5914C40.0671 47.5914 40.1262 48.2244 39.3622 48.349C39.3135 48.3583 39.2641 48.364 39.2145 48.3658Z" fill="#FB5352"/>
<path d="M38.7038 40.8785C38.7305 40.7344 38.7917 40.5989 38.8821 40.4835C38.9725 40.3681 39.0894 40.2763 39.2229 40.2158C39.359 40.1744 39.5036 40.1691 39.6424 40.2006C39.7812 40.2321 39.9093 40.2991 40.0143 40.3952L43.6503 44.5145L43.663 39.1333C43.6465 38.9484 43.7039 38.7646 43.8225 38.6218C43.9411 38.4791 44.1113 38.3891 44.2961 38.3714C44.9566 38.2554 44.946 38.9665 44.946 38.9665V45.6224C44.946 45.6224 44.946 46.2365 44.4691 46.4074C44.3066 46.4777 44.1252 46.4915 43.9539 46.4468C43.7826 46.402 43.6311 46.3013 43.5237 46.1605L39.9763 42.2987V47.5934C39.9763 47.5934 40.0375 48.159 39.3432 48.2666C39.2656 48.2887 39.184 48.292 39.1049 48.2764C39.0257 48.2609 38.9514 48.2268 38.888 48.177C38.8246 48.1271 38.7739 48.063 38.7401 47.9898C38.7062 47.9167 38.6902 47.8365 38.6932 47.7559L38.7038 40.8785Z" fill="#FB5352"/>
<path d="M36.4838 49.5139C36.3336 49.5244 36.1841 49.4859 36.0577 49.404C35.9313 49.3222 35.835 49.2015 35.7832 49.0601V49.0496V41.9949C35.7892 41.8082 35.8622 41.6299 35.9889 41.4927C36.1157 41.3555 36.2876 41.2686 36.4733 41.2478C36.5119 41.2445 36.5507 41.2445 36.5893 41.2478C36.9819 41.2478 37.1549 41.6277 37.1908 41.8282V48.9251C37.1513 49.0859 37.0614 49.2299 36.9342 49.3358C36.807 49.4418 36.6491 49.5042 36.4838 49.5139Z" fill="#FB5352"/>
<path d="M35.8655 41.9948C35.8703 41.8275 35.936 41.6677 36.0502 41.5454C36.1644 41.423 36.3193 41.3465 36.4859 41.3301C37.0008 41.2415 37.1063 41.8324 37.1063 41.8324V48.8934C37.1063 48.8934 36.9671 49.4315 36.4838 49.4315C36.3522 49.4431 36.2205 49.4111 36.1088 49.3406C35.9971 49.2701 35.9116 49.1649 35.8655 49.0411V41.9948Z" fill="#FB5352"/>
<path d="M31.1827 51.4131C30.3635 51.4108 29.5729 51.1108 28.9585 50.5689C27.1943 48.9799 27.6775 46.8147 28.1144 45.6625C28.289 45.2203 28.5381 44.8113 28.8509 44.4533C29.1742 44.0895 29.5679 43.7949 30.0082 43.5874C30.4485 43.38 30.9263 43.2639 31.4128 43.2462H31.571C31.9243 43.2527 32.2728 43.3287 32.5966 43.4699C32.7334 43.5212 32.8562 43.6038 32.9551 43.7112C33.0541 43.8186 33.1265 43.9478 33.1664 44.0882C33.1903 44.1887 33.1898 44.2935 33.1648 44.3938C33.1398 44.494 33.0912 44.5868 33.0229 44.6643C32.9712 44.7309 32.9044 44.7843 32.8282 44.8203C32.7519 44.8562 32.6682 44.8736 32.584 44.8711C32.4547 44.8671 32.3268 44.8444 32.2041 44.8036H32.1767C31.9407 44.7302 31.6957 44.6898 31.4486 44.6833H31.3262C30.9355 44.7298 30.5629 44.8748 30.2436 45.1048C29.9243 45.3348 29.6687 45.6421 29.5008 45.998C29.2542 46.4821 29.1313 47.0197 29.1431 47.5629C29.1549 48.106 29.301 48.6378 29.5684 49.1107C29.7208 49.362 29.9251 49.5779 30.1677 49.7438C30.4781 49.9665 30.8513 50.0847 31.2334 50.0815C31.4522 50.0905 31.6704 50.0534 31.874 49.9727C32.0776 49.892 32.2619 49.7695 32.4151 49.613C32.7502 49.2274 32.96 48.749 33.0166 48.2413C32.8055 48.3088 32.3603 48.4523 32.1345 48.5009C32.0826 48.5133 32.0295 48.5197 31.9762 48.5198C31.8552 48.5246 31.7368 48.4839 31.6443 48.4058C31.5518 48.3277 31.4918 48.2178 31.4761 48.0978C31.4568 48.0052 31.4569 47.9097 31.4761 47.8171C31.4953 47.7245 31.5334 47.6369 31.5879 47.5597C31.6897 47.4335 31.835 47.35 31.9952 47.3254L33.3416 46.8928C33.4818 46.8327 33.6322 46.7998 33.7847 46.7957C33.981 46.7957 34.3144 46.8738 34.3334 47.3908C34.3862 48.7245 34.0443 49.8113 33.35 50.5352C33.0665 50.8199 32.7284 51.0444 32.3559 51.1952C31.9835 51.3461 31.5845 51.4202 31.1827 51.4131Z" fill="#FB5352"/>
<path d="M32.2083 44.7065C31.924 44.6133 31.625 44.5732 31.3262 44.5884C29.448 44.7656 28.4267 47.2452 29.5008 49.1424C29.6587 49.4039 29.871 49.6285 30.1233 49.8008C30.8978 50.3727 32.0226 50.1996 32.4869 49.6573C32.968 49.077 33.1537 48.3911 33.0967 48.1168C33.0967 48.1168 32.413 48.3468 32.1239 48.408C32.0651 48.4286 32.0025 48.4359 31.9406 48.4294C31.8787 48.4229 31.8189 48.4029 31.7657 48.3706C31.7124 48.3383 31.667 48.2947 31.6326 48.2427C31.5982 48.1908 31.5757 48.132 31.5668 48.0703C31.5465 47.9967 31.5422 47.9195 31.5541 47.844C31.566 47.7685 31.5939 47.6965 31.6358 47.6326C31.6777 47.5687 31.7328 47.5145 31.7973 47.4735C31.8618 47.4326 31.9343 47.4058 32.0099 47.3951L33.3732 46.9582C33.3732 46.9582 34.2173 46.5678 34.2553 47.3803C34.4157 51.4954 30.8176 52.1411 29.0112 50.5162C27.0149 48.7182 28.0257 46.15 28.2009 45.6942C28.3718 45.2641 28.6152 44.8665 28.9205 44.5187C29.1758 44.2191 30.1866 43.2715 31.571 43.3454C31.9136 43.3499 32.252 43.4216 32.5671 43.5564C33.0799 43.778 33.255 44.276 32.9617 44.6116C32.7443 44.8901 32.3328 44.7424 32.2083 44.7065Z" fill="#FB5352"/>
<path d="M60.5052 40.6969C60.1866 40.6969 59.8552 40.5091 59.8552 40.1926V33.1315C59.8447 33.0012 59.8766 32.871 59.9462 32.7603C60.0158 32.6496 60.1194 32.5644 60.2414 32.5174L62.223 31.7999C62.5621 31.6795 62.9184 31.6146 63.2781 31.6079C63.8331 31.6079 64.2826 31.7894 64.5443 32.1165C64.8524 32.5027 64.8925 32.8614 64.9263 33.7836C64.9397 34.1459 64.8425 34.5037 64.6476 34.8095C64.4527 35.1152 64.1694 35.3543 63.8353 35.4951C64.2003 35.877 65.6628 37.4091 66.1566 37.8776C66.2341 37.9698 66.2829 38.0826 66.2972 38.2022C66.3114 38.3218 66.2904 38.4429 66.2368 38.5508C66.1717 38.6691 66.0761 38.7677 65.9599 38.8364C65.8437 38.905 65.7112 38.9412 65.5762 38.9412C65.4752 38.941 65.3754 38.919 65.2836 38.8768C65.1919 38.8346 65.1103 38.773 65.0445 38.6964C64.9221 38.5613 64.538 38.1688 64.0948 37.713C63.4195 37.0229 62.6619 36.2358 62.4509 35.9952L61.1109 36.5165V40.104C61.1153 40.1841 61.1026 40.2642 61.0735 40.339C61.0445 40.4139 60.9998 40.4816 60.9425 40.5378C60.8851 40.5939 60.8165 40.6371 60.741 40.6646C60.6656 40.6921 60.5852 40.7031 60.5052 40.6969ZM61.1109 35.2925C61.4823 35.1553 62.6282 34.7354 62.8181 34.6721C63.5968 34.3745 63.6622 34.1192 63.6622 33.733C63.685 33.4718 63.6098 33.2115 63.4512 33.0028C63.4103 32.9598 63.3607 32.926 63.3058 32.9034C63.2509 32.8809 63.1919 32.8702 63.1325 32.872C63.0236 32.8751 62.9162 32.8987 62.816 32.9416C62.6514 33.0091 61.3936 33.4671 61.1088 33.5747L61.1109 35.2925Z" fill="#FB5352"/>
<path d="M60.2668 32.5978L62.2526 31.8803C63.3204 31.5173 64.1308 31.7178 64.4853 32.1694C64.7681 32.5239 64.8145 32.8383 64.8504 33.788C64.8947 34.9191 63.9704 35.358 63.6982 35.4762C63.6982 35.4762 65.5362 37.4071 66.0954 37.9474C66.5492 38.5805 65.5974 39.2135 65.1057 38.648C64.7849 38.2935 62.6768 36.1768 62.4763 35.9046L61.0265 36.4702V40.1231C61.0265 40.8448 59.9418 40.7013 59.9418 40.2012V33.1317C59.9317 33.0196 59.9578 32.9073 60.0163 32.8111C60.0748 32.715 60.1626 32.6402 60.2668 32.5978ZM61.0244 35.4129C61.0244 35.4129 62.6198 34.8262 62.8435 34.7503C63.6391 34.4464 63.7404 34.1657 63.7551 33.7331C63.7699 33.3005 63.5779 32.545 62.7865 32.8616C62.6029 32.9375 61.0244 33.5094 61.0244 33.5094V35.4129Z" fill="#FB5352"/>
<path d="M69.0624 37.5231C68.6041 37.4939 68.157 37.3696 67.7493 37.1582C67.3417 36.9467 66.9825 36.6528 66.6947 36.2949C66.5974 36.1733 66.5356 36.0271 66.5162 35.8725C66.4969 35.718 66.5207 35.5611 66.585 35.4192C66.6384 35.3159 66.7193 35.2294 66.8187 35.1691C66.9181 35.1088 67.0321 35.0771 67.1484 35.0773C67.2732 35.0835 67.3954 35.1159 67.507 35.1722C67.6186 35.2286 67.7171 35.3077 67.7963 35.4044C67.9499 35.6093 68.1425 35.7817 68.3631 35.9117C68.5837 36.0417 68.8278 36.1268 69.0814 36.162C69.1674 36.1803 69.2552 36.1895 69.3431 36.1894C69.5779 36.1926 69.8096 36.1362 70.0166 36.0255C70.2237 35.9148 70.3993 35.7533 70.527 35.5563C70.6356 35.3741 70.6795 35.1606 70.6516 34.9503C70.6236 34.74 70.5254 34.5453 70.3729 34.3978C70.2673 34.285 70.1374 34.1977 69.9931 34.1424C69.7377 34.0412 68.4884 33.6972 67.9735 33.5727C67.3531 33.4207 66.6757 33.0029 66.4837 32.7285C66.3645 32.5581 66.2726 32.3702 66.2114 32.1714C66.1586 31.9776 66.1337 31.7772 66.1376 31.5763C66.129 31.2285 66.2112 30.8845 66.376 30.5782C66.5403 30.308 66.7552 30.0723 67.0091 29.8839C67.6675 29.3563 68.6974 29.3289 68.8936 29.3289C68.9868 29.3273 69.0799 29.333 69.1722 29.3457C70.1767 29.5103 70.7338 29.7362 70.9237 30.059C70.9719 30.1451 70.9992 30.2413 71.0036 30.3399C71.008 30.4384 70.9893 30.5366 70.949 30.6267V30.6394V30.6499C70.8871 30.7435 70.8031 30.8205 70.7045 30.8742C70.606 30.9279 70.4957 30.9567 70.3835 30.958C70.1801 30.9476 69.9817 30.8913 69.8031 30.7934C69.4856 30.6322 69.1357 30.5449 68.7797 30.5381C68.5985 30.5299 68.4176 30.5578 68.2473 30.6201C68.0771 30.6824 67.9209 30.7779 67.7878 30.901C67.6746 31.0535 67.6073 31.235 67.5937 31.4244C67.5867 31.526 67.602 31.6279 67.6384 31.7231C67.6748 31.8182 67.7316 31.9042 67.8047 31.9752C67.9774 32.1248 68.1815 32.2337 68.4019 32.2938L69.3558 32.5555L70.0374 32.7349L70.3244 32.8108L70.5164 32.8615C70.7506 32.9362 70.9708 33.0489 71.1685 33.1949C71.3479 33.3195 71.5049 33.4737 71.6328 33.6507C71.7515 33.8251 71.8446 34.0155 71.9092 34.2163C71.9678 34.4115 71.9983 34.614 72 34.8177C71.9894 34.9275 71.9409 37.5231 69.0624 37.5231Z" fill="#FB5352"/>
<path d="M67.733 35.4614C68.0557 35.8873 68.5335 36.1687 69.0625 36.2443C69.3547 36.3018 69.6575 36.2705 69.9317 36.1542C70.2059 36.038 70.439 35.8422 70.6009 35.5922C70.7196 35.3932 70.7677 35.1599 70.7375 34.9302C70.7072 34.7004 70.6004 34.4875 70.4342 34.326C70.3168 34.2019 70.1724 34.1066 70.0121 34.0475C69.7547 33.9462 68.4927 33.598 67.9841 33.4756C67.3996 33.3321 66.7179 32.9269 66.5449 32.6652C66.4308 32.5025 66.3425 32.3231 66.2832 32.1334C66.2328 31.9492 66.2086 31.7588 66.2115 31.5679C66.2036 31.2349 66.2821 30.9056 66.4394 30.6119C66.5991 30.3508 66.8084 30.1235 67.0556 29.943C67.7077 29.4217 68.8282 29.3711 69.1511 29.4238C70.8626 29.7045 71.0229 30.1287 70.8626 30.5929C70.6346 30.8863 70.3582 30.9749 69.8201 30.7111C68.7649 30.2067 67.9968 30.5254 67.7098 30.8377C67.5843 31.0064 67.5109 31.2082 67.4988 31.4181C67.492 31.5317 67.5101 31.6455 67.5516 31.7515C67.5932 31.8575 67.6572 31.9533 67.7393 32.0322C67.9221 32.1912 68.1385 32.3066 68.3724 32.3698L69.3263 32.6315L70.01 32.8108C70.221 32.872 70.3877 32.9079 70.4869 32.9354C70.7141 33.006 70.928 33.1136 71.12 33.254C71.2928 33.3733 71.444 33.521 71.5674 33.6908C71.6805 33.8575 71.7693 34.0394 71.8312 34.2311C71.8869 34.4181 71.916 34.612 71.9177 34.8072C71.9177 35.2292 71.7067 37.4282 69.073 37.4282C68.6285 37.4005 68.1946 37.2812 67.7984 37.0779C67.4022 36.8745 67.0523 36.5914 66.7707 36.2464C66.2178 35.4593 67.0746 34.7418 67.733 35.4614Z" fill="#FB5352"/>
<path d="M8.30079 59.9302C6.88056 59.9302 6.71596 59.1684 6.71596 58.5965C6.71596 57.7524 6.71596 57.7524 6.71596 51.2105L6.68642 29.3647C6.19188 29.5072 5.67953 29.5782 5.1649 29.5758C3.89872 29.5758 2.09653 29.1347 0.760713 27.0434C-0.203691 25.4902 -0.252227 23.4559 0.621434 21.1346C1.38747 19.2839 3.10947 17.8953 6.03856 16.7684L49.1181 0.970735C50.8717 0.324985 52.484 0 53.9106 0C55.5059 0 56.865 0.398845 57.9307 1.18809C58.7012 1.74471 59.2948 2.51191 59.64 3.39757C59.6653 3.43978 60.3807 4.73761 60.0325 6.86056C59.5936 8.77882 58.2367 10.408 56.578 11.0178L53.5497 12.1321L59.5345 21.6115L59.7202 21.8732C61.1847 23.9223 61.9212 24.9521 63.5504 24.9521C64.4979 24.9521 65.7388 24.6187 67.8343 23.7999C68.976 23.4517 69.7335 23.1415 69.7335 23.1373C69.9742 23.0521 70.2274 23.0079 70.4827 23.0064C70.7513 22.9899 71.0182 23.0585 71.2456 23.2024C71.4729 23.3464 71.649 23.5584 71.7489 23.8083C71.8207 23.987 71.8557 24.1784 71.8517 24.371C71.8477 24.5636 71.8049 24.7533 71.7257 24.9289C71.638 25.1291 71.5101 25.3092 71.3501 25.458C71.19 25.6068 71.0011 25.7212 70.795 25.7941L70.4046 25.9376C69.3685 26.3217 66.6188 27.3431 65.9962 27.5372C65.2356 27.8101 64.4344 27.9528 63.6264 27.9593C62.6397 27.9708 61.6658 27.7351 60.7937 27.2735C59.9215 26.812 59.1789 26.1395 58.6334 25.3172C58.5701 25.2096 52.5642 15.1414 51.3655 13.2337L51.3972 32.1862C51.3972 32.1989 51.3655 33.3447 49.92 33.3447C48.9303 33.3447 48.6095 32.585 48.6095 32.2157V13.9406L47.3096 14.4196C47.2441 14.4311 47.1776 14.4361 47.1112 14.4344C46.8125 14.4501 46.5178 14.3596 46.2795 14.1788C46.0412 13.998 45.8745 13.7387 45.8091 13.4468C45.5981 12.5562 46.0202 11.8451 46.9782 11.4927L48.9999 10.7498V4.05387L9.58174 18.5031V25.2454L16.206 22.7827C16.3348 22.7495 16.4675 22.7332 16.6006 22.7342C16.972 22.7342 17.6262 22.8671 17.8267 23.7492C17.8901 24.1419 17.813 24.5443 17.6087 24.8856C17.4045 25.2269 17.0863 25.4851 16.7103 25.6147L16.4233 25.7477L9.58174 28.2843C9.58174 29.7741 9.63239 58.0542 9.63239 58.5543C9.64083 58.8772 9.54375 59.9302 8.30079 59.9302ZM6.66531 19.5983C6.20316 19.7523 4.38409 20.4108 3.4851 21.5566C2.42996 22.9621 2.76338 24.5744 2.89211 25.0344C3.31417 26.3344 4.34821 26.6066 5.13535 26.6066C5.66072 26.597 6.18075 26.4993 6.67376 26.3175L6.66531 19.5983ZM51.8425 9.76433C52.4228 9.57018 54.4445 8.84002 54.9974 8.63743C55.9238 8.29556 57.3187 7.77854 57.5297 5.93203C57.5044 4.33665 56.5695 2.61887 54.0182 2.61887H53.9865C53.2539 2.64715 52.5293 2.78296 51.8361 3.02194L51.8425 9.76433Z" fill="#FB5352"/>
<path d="M49.0843 3.93152V10.8111L47.0078 11.5729C46.2058 11.8662 45.6614 12.4845 45.8914 13.4278C46.1552 14.5146 47.28 14.3416 47.28 14.3416L48.6939 13.8225V32.2095C48.6939 32.4711 48.9302 33.2541 49.92 33.2541C51.2959 33.2541 51.3085 32.182 51.3085 32.182L51.2769 12.9404C51.9226 13.9027 58.5046 24.9353 58.7009 25.2645C59.9481 27.1806 62.6598 28.6093 65.9687 27.4529C66.7116 27.2207 70.4953 25.8068 70.7633 25.7098C70.9476 25.6487 71.1176 25.5512 71.2635 25.4232C71.4093 25.2951 71.528 25.1391 71.6124 24.9643C71.6969 24.7896 71.7454 24.5996 71.755 24.4058C71.7647 24.2119 71.7353 24.0181 71.6686 23.8358C71.1727 22.6688 69.7694 23.2027 69.7694 23.2027C69.7694 23.2027 69.0139 23.5129 67.8701 23.8654C62.4002 26.001 61.9613 25.1315 59.4669 21.6453L53.4273 12.0773L56.5547 10.9271C58.0319 10.3827 59.4796 8.89915 59.9544 6.83529C60.3026 4.72499 59.5661 3.4145 59.5661 3.4145C58.9035 1.58699 56.0841 -1.51092 49.1518 1.04042L6.06173 16.8423C3.21706 17.9375 1.46129 19.3071 0.693147 21.16C-0.0475665 23.1204 -0.260705 25.237 0.826096 26.9865C3.11576 30.5866 6.76446 29.2445 6.76446 29.2445V26.3787C5.26193 26.9274 3.42598 26.9063 2.8161 25.0577C2.55232 24.0996 2.55021 22.6688 3.42598 21.5039C4.48112 20.1534 6.75602 19.4802 6.75602 19.4802C6.80667 58.2821 6.80667 57.0708 6.80667 58.5945C6.80667 59.1284 6.93539 59.8438 8.30709 59.8438C9.34746 59.8438 9.56271 59.0714 9.56271 58.5544C9.56271 58.0373 9.51206 28.2252 9.51206 28.2252L16.3937 25.6675L16.685 25.5325C17.0448 25.4141 17.3503 25.1705 17.5459 24.846C17.7414 24.5215 17.8141 24.1376 17.7507 23.7641C17.4658 22.5148 16.2439 22.8566 16.2439 22.8566L9.50573 25.3616V18.444L49.0843 3.93152ZM51.758 9.88044V2.9629C52.4766 2.71018 53.2294 2.56787 53.9907 2.54084C56.5336 2.52607 57.593 4.19531 57.6204 5.94685C57.4094 7.84612 55.9638 8.37791 55.0248 8.72189C54.4655 8.92237 52.1315 9.76438 51.758 9.88044Z" fill="#FB5352"/>
<path d="M29.0808 40.5536C27.7935 40.5536 27.669 39.4436 27.669 39.433V21.658L24.3242 22.8778C24.2877 22.8816 24.2509 22.8816 24.2145 22.8778C23.9302 22.8837 23.6514 22.8001 23.4173 22.6387C23.1833 22.4774 23.0059 22.2465 22.9103 21.9788C22.8352 21.7816 22.8001 21.5715 22.807 21.3607C22.8139 21.1498 22.8626 20.9424 22.9504 20.7506C23.077 20.4531 23.3125 20.2152 23.6088 20.0858L33.8121 16.3316C33.9107 16.3121 34.0112 16.3029 34.1117 16.3042C34.3835 16.2834 34.6539 16.358 34.8766 16.5152C35.0992 16.6723 35.2601 16.9022 35.3315 17.1652C35.3315 17.1779 35.781 18.6867 34.4008 19.1615L30.6023 20.5628V39.2431C30.6194 39.5393 30.5271 39.8315 30.3428 40.064C30.2134 40.2072 30.0565 40.3227 29.8813 40.4036C29.7061 40.4845 29.5164 40.529 29.3235 40.5346C29.2419 40.5416 29.1645 40.5451 29.0914 40.5451L29.0808 40.5536Z" fill="#FB5352"/>
<path d="M33.8396 16.4181L23.6342 20.1807C23.1531 20.3559 22.674 21.124 22.9864 21.966C23.0817 22.2307 23.2615 22.4567 23.4979 22.6092C23.7343 22.7618 24.0143 22.8324 24.2947 22.8101L27.7514 21.544V39.435C27.7514 39.435 27.8675 40.6041 29.3046 40.4691C30.6193 40.3467 30.5074 39.262 30.5074 39.262V20.5226L34.3714 19.1003C35.6903 18.6465 35.2472 17.201 35.2472 17.201C34.9686 16.188 33.8396 16.4181 33.8396 16.4181Z" fill="#FB5352"/>
<path d="M18.3309 44.6306C14.756 44.6306 13.1564 41.5855 13.1564 38.5677V29.6771C13.152 29.501 13.1824 29.3259 13.2459 29.1617C13.3095 28.9974 13.405 28.8475 13.5268 28.7203C13.6486 28.5932 13.7944 28.4914 13.9558 28.4209C14.1172 28.3505 14.2909 28.3126 14.4669 28.3096C15.961 28.3096 16.0053 29.4302 16.0053 29.4428V38.669C16.0053 40.8426 17.2715 41.8155 18.5377 41.8155C18.875 41.813 19.2085 41.744 19.5192 41.6126C19.8299 41.4811 20.1116 41.2898 20.3483 41.0494C20.7493 40.6443 21.2262 39.9014 21.2135 38.6711V27.4254C21.2452 25.8785 22.5093 25.8195 22.5219 25.8195C24.0434 25.8195 24.0624 27.1215 24.0624 27.1342V38.7197C24.0624 42.9698 20.7999 44.5821 18.6073 44.6285C18.5229 44.6285 18.428 44.6306 18.3309 44.6306Z" fill="#FB5352"/>
<path d="M14.4733 28.3855C14.4733 28.3855 13.2451 28.3855 13.2451 29.753V38.5698C13.2451 42.6912 15.807 44.6897 18.6179 44.5398C20.591 44.4997 23.9907 43.0268 23.9907 38.7175V27.132C23.9907 27.132 23.9907 25.9017 22.5388 25.9017C22.5388 25.9017 21.3107 25.9418 21.3107 27.4823V38.6669C21.3529 42.7841 15.9379 43.1618 15.9379 38.6669V29.4365C15.9379 29.4365 15.9125 28.3855 14.4733 28.3855Z" fill="#FB5352"/>
<path d="M39.244 37.0124C35.6713 37.0124 34.0612 33.9673 34.0612 30.9432V22.5928C34.0567 22.1808 34.1793 21.7774 34.4123 21.4376C34.6453 21.0978 34.9773 20.8379 35.3632 20.6935C35.5133 20.649 35.6688 20.6256 35.8254 20.6239C36.6167 20.6239 36.8805 21.3245 36.9375 21.5503H36.9565V21.6347L36.9143 31.0382C36.9143 32.0322 37.1865 32.8573 37.7035 33.4207C37.9236 33.6628 38.1922 33.856 38.4917 33.9876C38.7913 34.1192 39.1152 34.1863 39.4424 34.1846C40.1236 34.1793 40.7748 33.9038 41.253 33.4186C41.654 33.0134 42.1309 32.2706 42.1183 31.0403V19.8051C42.1879 18.2815 43.4055 17.9649 43.4182 17.9628C43.564 17.9186 43.7153 17.8951 43.8677 17.8932C44.1153 17.8987 44.3539 17.9872 44.5452 18.1445C44.7365 18.3017 44.8695 18.5187 44.9228 18.7605H44.9482L44.9629 18.8703V31.11C44.9629 35.3559 41.7004 36.9681 39.5057 37.0188C39.4361 37.0103 39.3369 37.0124 39.244 37.0124Z" fill="#FB5352"/>
<path d="M43.4604 18.0409C43.4604 18.0409 42.2618 18.3363 42.2238 19.8621V31.0466C42.2639 35.1638 36.851 35.5394 36.851 31.0466L36.8932 21.6495C36.8932 21.6178 36.6547 20.434 35.416 20.7885C35.0373 20.9275 34.7128 21.1834 34.4893 21.5192C34.2658 21.8549 34.1551 22.2531 34.173 22.6561V30.9432C34.173 35.0667 36.7328 37.0631 39.5458 36.9153C41.519 36.871 44.9186 35.4023 44.9186 31.093V18.8533H44.9039C44.8237 18.6149 44.543 17.7243 43.4604 18.0409Z" fill="#FB5352"/>
</svg>
